<svg xmlns="http://www.w3.org/2000/svg" width="125" height="125" viewBox="0 0 125 125" fill="none"><rect width="125" height="125" rx="10" fill="#E9A3C5" fill-opacity="0.3"></rect><path d="M66.3204 69.3036C68.0109 69.3036 69.3858 68.0526 69.3858 66.5148C69.3858 65.7224 69.0185 65.0084 68.4331 64.501C68.1014 65.3832 67.5571 66.2139 66.785 66.9168C66.0176 67.6149 65.0994 68.1235 64.1007 68.4307C64.6585 68.9671 65.446 69.3036 66.3204 69.3036Z" fill="#E93189"></path><path d="M52.0483 62.4546C51.6056 63.738 51.3621 65.1006 51.3621 66.515C51.3621 74.018 58.0725 80.1218 66.3203 80.1218C74.5682 80.1218 81.2782 74.0177 81.2782 66.515C81.2782 59.0124 74.5679 52.9086 66.3203 52.9086C64.7756 52.9086 63.2868 53.1271 61.8839 53.5243C61.8839 53.5243 67.1572 58.3451 67.325 58.5388C71.7206 58.9941 75.1474 62.3969 75.1474 66.515C75.1474 70.9428 71.1875 74.5452 66.32 74.5452C61.7783 74.5452 58.0277 71.4086 57.546 67.3919C57.3432 67.2443 52.0483 62.4546 52.0483 62.4546Z" fill="#E93189"></path><path d="M66.3204 90.9404C81.1262 90.9404 93.1714 79.9832 93.1714 66.515C93.1714 53.0468 81.1262 42.0898 66.3204 42.0898C61.4377 42.0898 56.8582 43.2852 52.9098 45.3663L57.443 49.4869C60.1352 48.3209 63.1453 47.6668 66.3207 47.6668C77.7455 47.6668 87.0405 56.122 87.0405 66.5147C87.0405 76.9076 77.7455 85.3629 66.3207 85.3629C54.8955 85.3629 45.6005 76.9076 45.6005 66.5147C45.6005 63.619 46.3232 60.8746 47.6116 58.4208L43.0807 54.302C40.787 57.8972 39.4693 62.0678 39.4693 66.515C39.4693 79.9829 51.5145 90.9404 66.3204 90.9404Z" fill="#E93189"></path><path d="M31.8747 32.1013C31.8747 33.7891 30.3655 35.1619 28.5101 35.1619H27.7789L59.8341 64.3019C60.3968 64.8132 61.1336 65.0688 61.8708 65.0688C62.6083 65.0688 63.3461 64.8126 63.9088 64.3007C65.0336 63.2766 65.033 61.6173 63.9075 60.5944L31.8747 31.4748V32.1013Z" fill="#E93189"></path><path d="M66.3203 26.0302C56.5531 26.0302 47.5131 28.9103 40.166 33.7814L48.7195 41.557C53.8006 38.5812 59.8406 36.8482 66.32 36.8482C84.3029 36.8482 98.933 50.1565 98.933 66.5147C98.933 82.8728 84.3029 96.1814 66.32 96.1814C48.3371 96.1814 33.707 82.8728 33.707 66.5147C33.707 60.6162 35.615 55.1183 38.8908 50.4939L30.3388 42.7197C24.9817 49.4037 21.8142 57.6284 21.8142 66.515C21.8142 88.8383 41.7795 107 66.32 107C90.8602 107 110.825 88.8383 110.825 66.515C110.825 44.1916 90.8605 26.0302 66.3203 26.0302Z" fill="#E93189"></path><path d="M27.279 24.2244L21.6513 19.1683C21.2489 18.8067 20.567 19.0663 20.567 19.5806V21.2474C20.567 23.2575 18.7755 24.8872 16.5656 24.8872H14.6382C14.0689 24.8872 13.7855 25.5146 14.1906 25.8787L19.873 30.9865C19.9921 31.0937 20.153 31.1539 20.3205 31.1539H26.8318C27.1836 31.1539 27.4686 30.8946 27.4686 30.5746V24.6366C27.4686 24.4819 27.4004 24.3334 27.279 24.2244Z" fill="#E93189"></path></svg>