<svg xmlns="http://www.w3.org/2000/svg" width="125" height="125" viewBox="0 0 125 125" fill="none"><rect width="125" height="125" rx="10" fill="#3AB226" fill-opacity="0.3"></rect><g clip-path="url(#clip0)"><path d="M111.891 81.872H107.438V40.6144H111.891C113.055 40.6144 114.001 39.6696 114.001 38.505C114.001 37.3395 113.056 36.3939 111.891 36.3939H105.326H78.1342V34.4293C78.1342 33.8563 77.6698 33.3901 77.0941 33.3901C76.5184 33.3901 76.0549 33.8554 76.0549 34.4293V36.3939H50.9409H44.377C43.2115 36.3939 42.2667 37.3386 42.2667 38.505C42.2667 39.6687 43.2115 40.6144 44.377 40.6144H48.8315V43.3162C49.2995 43.2023 49.7754 43.1431 50.2548 43.1431C50.6884 43.1431 51.1113 43.2067 51.5263 43.2994V40.6153H104.74V81.872H51.5272V55.5062C50.6407 55.9132 49.7401 56.2832 48.8315 56.6284V81.872H44.377C43.2115 81.872 42.2667 82.8158 42.2667 83.9822C42.2667 85.146 43.2115 86.0925 44.377 86.0925H50.9409H78.6755C78.6102 86.1313 78.5466 86.1719 78.4892 86.2187C78.4548 86.2461 78.4194 86.2735 78.3868 86.3044C78.3161 86.368 78.2526 86.4386 78.1934 86.5145C78.1757 86.5348 78.1563 86.5507 78.1395 86.5719L66.6328 102.65C66.0677 103.441 66.2496 104.538 67.0399 105.102C67.8292 105.667 68.9276 105.486 69.4919 104.697L77.8111 93.0722V111.782C77.8111 112.754 78.5987 113.54 79.569 113.54C80.5412 113.54 81.327 112.753 81.327 111.782V93.0704L89.6463 104.695C89.9897 105.175 90.5292 105.43 91.0775 105.43C91.4325 105.43 91.7901 105.323 92.1 105.102C92.8894 104.536 93.0712 103.438 92.5062 102.65L80.9994 86.5701C80.9836 86.549 80.9632 86.5331 80.9465 86.5128C80.8873 86.4368 80.8229 86.3662 80.7522 86.3017C80.7196 86.2726 80.6842 86.2461 80.6507 86.217C80.5924 86.1702 80.5279 86.1296 80.4644 86.0907H105.324H111.889C113.053 86.0907 113.999 85.146 113.999 83.9813C114 82.8158 113.055 81.872 111.891 81.872Z" fill="#3AB226"></path><path d="M67.8036 56.4068C67.0019 56.4068 66.3114 56.8774 65.9794 57.5537L58.0575 58.1859C57.6964 57.6129 57.0607 57.2271 56.334 57.2271C55.2082 57.2271 54.2926 58.1427 54.2926 59.2684C54.2926 60.3942 55.2073 61.3098 56.334 61.3098C57.1419 61.3098 57.8359 60.8339 58.167 60.1505L66.0739 59.5201C66.435 60.1002 67.0725 60.4904 67.8036 60.4904C68.0773 60.4904 68.3369 60.4348 68.5736 60.3377L74.8558 66.0424C74.8443 66.1237 74.8302 66.204 74.8302 66.287C74.8302 67.4119 75.7458 68.3293 76.8716 68.3293C77.9956 68.3293 78.913 67.4128 78.913 66.287C78.913 66.1758 78.8971 66.068 78.8803 65.9612L83.9097 61.4034C84.141 61.4952 84.3918 61.5491 84.6549 61.5491C85.1387 61.5491 85.5767 61.3734 85.9263 61.0908L91.0457 63.6505C91.1534 64.6756 92.0126 65.4809 93.0659 65.4809C94.1908 65.4809 95.1082 64.5652 95.1082 63.4395C95.1082 63.1958 95.0561 62.9645 94.9784 62.7464L99.4983 57.2597C99.6378 57.2897 99.7844 57.3092 99.9345 57.3092C101.059 57.3092 101.976 56.3935 101.976 55.2678C101.976 54.142 101.06 53.2255 99.9345 53.2255C98.8087 53.2255 97.8931 54.142 97.8931 55.2678C97.8931 55.5106 97.9443 55.7419 98.022 55.9574L93.503 61.4476C93.3617 61.4166 93.2169 61.3972 93.0677 61.3972C92.5953 61.3972 92.1653 61.5659 91.8183 61.8361L86.6724 59.264C86.5497 58.2522 85.6977 57.4646 84.6549 57.4646C83.5309 57.4646 82.6135 58.3811 82.6135 59.5068C82.6135 59.6366 82.6285 59.7638 82.6514 59.8883L77.6663 64.4072C77.4226 64.303 77.1541 64.2447 76.8725 64.2447C76.5661 64.2447 76.2783 64.3171 76.0178 64.439L69.8115 58.8022C69.83 58.6866 69.8468 58.5691 69.8468 58.4491C69.8459 57.3233 68.9294 56.4068 67.8036 56.4068ZM56.334 60.3262C55.7495 60.3262 55.2753 59.8521 55.2753 59.2684C55.2753 58.6839 55.7495 58.2098 56.334 58.2098C56.9185 58.2098 57.3918 58.6839 57.3918 59.2684C57.3918 59.8512 56.9185 60.3262 56.334 60.3262ZM67.8036 59.5068C67.2191 59.5068 66.7467 59.0336 66.7467 58.4491C66.7467 57.8645 67.2209 57.3904 67.8036 57.3904C68.3881 57.3904 68.8623 57.8645 68.8623 58.4491C68.8623 59.0336 68.3881 59.5068 67.8036 59.5068ZM99.9353 54.21C100.521 54.21 100.994 54.6833 100.994 55.2678C100.994 55.8523 100.52 56.3256 99.9353 56.3256C99.3517 56.3256 98.8776 55.8523 98.8776 55.2678C98.8776 54.6833 99.3508 54.21 99.9353 54.21ZM93.0668 62.3808C93.6513 62.3808 94.1246 62.855 94.1246 63.4395C94.1246 64.0231 93.6513 64.4973 93.0668 64.4973C92.4823 64.4973 92.0081 64.0231 92.0081 63.4395C92.0081 62.855 92.4832 62.3808 93.0668 62.3808ZM84.6549 58.4491C85.2394 58.4491 85.7127 58.9223 85.7127 59.5068C85.7127 60.0913 85.2394 60.5646 84.6549 60.5646C84.0712 60.5646 83.5971 60.0913 83.5971 59.5068C83.5971 58.9223 84.0721 58.4491 84.6549 58.4491ZM76.8725 65.2283C77.4561 65.2283 77.9303 65.7016 77.9303 66.2852C77.9303 66.8697 77.4561 67.3439 76.8725 67.3439C76.288 67.3439 75.8147 66.8697 75.8147 66.2852C75.8138 65.7016 76.2871 65.2283 76.8725 65.2283Z" fill="#3AB226"></path><path d="M28.4996 42.5807C32.6753 42.5807 36.0604 39.1957 36.0604 35.02C36.0604 30.8443 32.6753 27.4593 28.4996 27.4593C24.3239 27.4593 20.9389 30.8443 20.9389 35.02C20.9389 39.1957 24.3239 42.5807 28.4996 42.5807Z" fill="#3AB226"></path><path d="M36.0604 72.6663V55.6598C42.823 55.4399 49.3675 53.8374 55.4917 50.6808C59.5559 48.5856 55.9693 42.4694 51.9139 44.5602C46.6594 47.2674 41.0791 48.4673 35.3072 48.5865C34.3307 46.8815 32.4959 45.7301 30.3892 45.7301H26.6092C23.4765 45.7301 20.938 48.2695 20.938 51.4013V72.6663C20.938 74.1196 21.4889 75.4405 22.3878 76.4436C23.2063 86.0139 22.8637 95.5365 17.5642 103.957C15.1202 107.838 21.2576 111.392 23.6849 107.534C29.2969 98.6197 30.2585 88.5214 29.6113 78.3384H29.8285C32.0959 85.4982 33.0742 92.8214 33.1466 100.392C33.1917 104.96 40.2792 104.965 40.235 100.392C40.1494 91.4104 38.9044 82.5845 35.8661 74.1152C35.9889 73.6508 36.0604 73.1678 36.0604 72.6663Z" fill="#3AB226"></path></g><defs><clipPath id="clip0"><rect width="97" height="97" fill="white" transform="translate(17 22)"></rect></clipPath></defs></svg>