<svg xmlns="http://www.w3.org/2000/svg" width="425" height="473" viewBox="0 0 425 473" fill="none"><path opacity="0.4" d="M387.325 229.869C408.133 229.869 425 220.131 425 208.12C425 196.109 408.133 186.371 387.325 186.371C366.518 186.371 349.651 196.109 349.651 208.12C349.651 220.131 366.518 229.869 387.325 229.869Z" fill="#D6D8E5"></path><path d="M393.278 13.2439C394.745 10.8789 405.978 9.32751 409.669 18.8348C411.07 22.4485 410.861 31.6626 412.035 37.4615C413.208 43.2605 415.962 46.5337 416.956 51.2353C417.95 55.9369 416.331 63.836 405.041 65.2739C393.751 66.7119 384.997 62.6914 382.329 59.0871C379.66 55.4828 379.594 47.8013 382.376 43.6768C385.158 39.5522 387.269 36.2034 387.202 30.8395L393.278 13.2439Z" fill="#3A2C6D"></path><path d="M379.821 53.08C379.821 53.08 377.162 71.8487 382.187 85.244C387.212 98.6394 385.83 81.8006 385.83 81.8006L384.619 77.8179C384.619 77.8179 383.606 62.436 384.023 58.652C384.439 54.868 384.344 51.6516 384.619 51.3488C384.893 51.0461 383.616 50.4501 383.086 50.4028C382.556 50.3555 379.821 53.08 379.821 53.08Z" fill="#FFCEA9"></path><path d="M400.698 11.6263C400.698 11.6263 392.237 9.19507 387.108 13.7643C385.416 15.321 384.184 17.3123 383.546 19.5209C382.909 21.7296 382.89 24.0708 383.493 26.2893C384.174 28.957 385.546 32.5991 387.666 32.7978C389.786 32.9964 400.698 11.6263 400.698 11.6263Z" fill="#3A2C6D"></path><path d="M403.925 34.6803C403.925 34.6803 403.376 44.1403 403.546 44.793C403.716 45.4458 407.246 46.1553 408.231 46.9783C409.215 47.8013 403.111 57.3843 399.997 58.7749C396.884 60.1655 387.259 56.5707 386.597 51.784C385.972 47.3756 389.351 43.9511 390.647 42.7591C391.531 42.6709 392.42 42.6487 393.306 42.6929L393.59 38.1237C397.802 36.7804 403.925 34.6803 403.925 34.6803Z" fill="#FFCEA9"></path><path d="M405.221 45.7107C407.871 46.1175 410.899 47.5365 411.306 48.9839C411.798 50.6772 412.839 58.6425 410.549 64.7064C408.259 70.7702 406.716 74.6299 405.391 77.2409C405.391 77.2409 393.941 82.1601 384.704 76.4273C384.704 76.4273 384.061 69.9283 384.023 66.447C375.505 59.0115 382.783 49.8447 390.013 42.7213C390.879 42.6458 391.75 42.6458 392.616 42.7213C392.616 42.7213 386.171 50.2893 390.647 54.6693C400.243 51.7367 402.145 47.4324 405.221 45.7107Z" fill="#F4F4F4"></path><path d="M386.322 23.0067C387.269 16.9523 391.641 12.3831 397.887 12.7521C399.469 12.8402 401.018 13.2395 402.446 13.927C403.873 14.6146 405.151 15.5768 406.206 16.7587C407.261 17.9407 408.072 19.319 408.593 20.8148C409.114 22.3106 409.335 23.8945 409.243 25.4758C409.133 27.3143 408.598 29.1022 407.68 30.6992C406.762 32.2963 405.486 33.6589 403.953 34.6803C403.738 35.5961 403.421 36.4846 403.007 37.3291C400.783 39.9023 394.915 41.5388 392.975 41.5578C391.3 41.5578 389.852 40.0158 388.243 37.4143C384.969 32.0032 385.802 25.9961 386.322 23.0067Z" fill="#FFCEA9"></path><path d="M399.827 12.8561C404.209 13.717 407.805 14.9468 408.997 19.2511C409.811 22.2121 410.89 27.8502 409.858 30.2342L409.234 31.9464L403.925 34.6804C403.925 34.6804 401.455 32.6181 402.221 26.5731C402.191 25.7551 401.932 24.9619 401.474 24.2838C401.145 23.7132 400.899 23.0983 400.745 22.458C400.115 20.8268 398.886 19.4972 397.31 18.7403C393.354 16.5266 387.572 18.4375 386.767 19.2416C387.879 16.8399 389.785 14.894 392.163 13.7312C394.541 12.5683 397.248 12.2593 399.827 12.8561Z" fill="#3A2C6D"></path><path d="M411.666 89.7281C412.612 83.598 414.505 79.6153 413.634 76.2476C411.728 69.4225 409.233 62.7755 406.177 56.3816C404.284 52.5976 404.824 49.9109 406.83 48.4068C409.092 46.7135 411.249 47.4608 413.284 51.68C415.839 56.9965 418.726 62.4549 420.126 70.3729C420.817 74.2137 421.177 77.9409 419.937 85.8306C419.066 91.3457 417.316 94.4392 415.205 99.6138C414.628 101.023 410.776 94.9311 411.666 89.7281Z" fill="#FFCEA9"></path><path d="M407.786 204.128C405.571 205.935 402.108 204.686 401.956 204.856C399.694 207.117 396.335 209.085 393.827 211.053C392.445 212.14 390.297 213.597 390.685 215.679C391.385 219.415 397.366 218.271 399.619 217.126C401.871 215.981 403.716 214.089 405.855 212.765C407.369 211.819 408.874 211.327 409.111 209.407C409.253 208.243 408.174 204.09 407.786 204.128Z" fill="#38226D"></path><path d="M409.082 208.631C408.789 210.523 407.313 210.977 405.798 211.913C403.631 213.266 401.72 215.205 399.467 216.35C397.376 217.4 392.18 218.45 390.713 215.783C391.508 219.387 397.385 218.252 399.619 217.126C401.852 216 403.716 214.089 405.855 212.765C407.369 211.819 408.874 211.327 409.111 209.406C409.128 209.148 409.118 208.888 409.082 208.631Z" fill="#9C73FF"></path><path d="M392.228 201.025C390.202 202.68 387.136 201.753 386.985 201.905C384.922 203.976 381.856 205.755 379.565 207.581C378.297 208.583 376.319 209.908 376.679 211.828C377.322 215.243 382.792 214.193 384.865 213.143C386.937 212.093 388.65 210.362 390.543 209.151C391.934 208.29 393.306 207.836 393.524 206.077C393.685 204.989 392.587 200.987 392.228 201.025Z" fill="#38226D"></path><path d="M393.534 205.339C393.259 207.023 391.906 207.486 390.524 208.347C388.537 209.586 386.739 211.365 384.723 212.405C382.83 213.351 378.099 214.297 376.707 211.894C377.436 215.186 382.821 214.155 384.865 213.115C386.909 212.074 388.65 210.334 390.543 209.123C391.934 208.262 393.306 207.808 393.524 206.048C393.555 205.813 393.558 205.575 393.534 205.339Z" fill="#9C73FF"></path><path d="M380.275 97.9394C381.221 90.3051 384.061 79.1991 384.061 79.1991C386.735 80.4504 389.628 81.167 392.578 81.3087C397.508 81.5641 405.401 80.06 405.401 80.06C406.773 82.4652 408.277 84.7928 409.906 87.032C412.111 90.0876 416.388 96.7947 415.357 108.497C414.675 116.15 410.388 148.635 410.388 148.635C412.059 154.122 412.947 159.816 413.029 165.55C412.981 170.28 411.742 178.302 410.341 185.728L407.786 204.166C407.786 204.166 404.379 206.625 401.956 204.894L402.259 186.844C401.966 182.427 401.521 175.909 401.246 171.708C400.783 164.935 399.571 154.17 399.221 151.483C398.871 148.796 398.01 144.104 397.593 138.835C397.177 133.566 395.199 106.832 395.199 106.832L394.925 111.846C394.925 111.846 394.669 119.972 393.496 130.009C392.322 140.046 391.915 144.492 391.915 144.492C391.915 144.492 393.95 148.219 394.205 150.972C394.414 153.138 396.893 170.289 395.407 179.012L392.37 201.195C391.611 201.717 390.739 202.051 389.826 202.171C388.913 202.291 387.985 202.194 387.117 201.886L385.329 179.532C384.127 171.018 381.543 152.987 381.193 150.641C380.682 147.557 380.247 146.034 379.679 136.337C379.111 126.641 379.3 105.583 380.275 97.9394Z" fill="#FFCEA9"></path><path d="M405.391 77.2409L412.016 90.4849C412.016 90.4849 422.057 105.186 411.656 142.959L413.559 154.586C413.559 154.586 393.855 167.224 380.673 154.586C380.673 154.586 376.102 119.678 378.534 103.577C379.884 94.3186 381.937 85.1759 384.676 76.2286C384.676 76.2286 387.903 79.7951 404.549 77.4395" fill="#174399"></path><path d="M417.202 59.0871C417.202 59.0871 412.631 63.6374 407.208 63.0698L404.606 54.2152C404.606 54.2152 402.912 49.5798 406.868 47.5932C410.824 45.6066 414.931 50.015 417.202 59.0871Z" fill="#EDEDED"></path><path d="M390.013 42.7213C390.013 42.7213 384.78 41.132 379.225 52.7111L381.297 53.9692C381.297 53.9692 386.767 45.7012 390.013 42.7213Z" fill="#EDEDED"></path><path opacity="0.4" d="M37.6745 318.32C58.4816 318.32 75.349 308.582 75.349 296.571C75.349 284.56 58.4816 274.823 37.6745 274.823C16.8675 274.823 0 284.56 0 296.571C0 308.582 16.8675 318.32 37.6745 318.32Z" fill="#D6D8E5"></path><path d="M18.3499 289.892C21.047 292.087 25.0217 290.082 25.2204 290.28C28.3885 293.218 31.7119 295.985 35.1761 298.567C36.8512 299.891 39.4726 301.651 38.9616 304.196C38.1098 308.737 30.8418 307.337 28.0974 305.946C25.3529 304.555 23.1101 302.257 20.5265 300.648C18.6338 299.494 16.8452 298.898 16.5613 296.562C16.4098 295.152 17.8672 289.836 18.3499 289.892Z" fill="#38226D"></path><path d="M16.6275 295.615C16.9777 297.858 18.7757 298.453 20.6211 299.617C23.252 301.254 25.5801 303.619 28.3245 305.009C30.8607 306.286 37.1824 307.563 38.9616 304.319C38.0152 308.699 30.8513 307.327 28.1352 305.946C25.4192 304.565 23.1479 302.256 20.5644 300.648C18.6716 299.494 16.883 298.898 16.5991 296.561C16.5734 296.246 16.5829 295.929 16.6275 295.615Z" fill="#9C73FF"></path><path d="M41.7533 281.198C44.441 283.393 49.1633 280.99 49.3242 281.198C52.1333 284.037 55.1001 286.715 58.2105 289.221C59.895 290.545 62.5164 292.305 61.9959 294.849C61.1442 299.39 53.8762 297.99 51.1318 296.599C48.3873 295.209 46.1444 292.91 43.5609 291.302C41.6682 290.148 39.889 289.552 39.6051 287.215C39.4916 285.805 41.2707 281.142 41.7533 281.198Z" fill="#38226D"></path><path d="M39.7471 286.638C40.1067 288.88 41.9048 289.476 43.7407 290.64C46.381 292.276 48.7091 294.641 51.444 296.032C53.9803 297.309 60.3114 298.586 62.0906 295.341C61.1442 299.721 53.9708 298.35 51.2548 296.968C48.5387 295.587 46.2769 293.279 43.6839 291.671C41.8385 290.517 40.012 289.921 39.7281 287.584C39.6984 287.269 39.7048 286.952 39.7471 286.638Z" fill="#9C73FF"></path><path d="M18.189 190.392C18.3215 194.469 19.5896 212.15 20.1574 221.544C20.7252 230.938 20.8577 242.356 20.8577 242.356C20.8577 242.356 19.2394 249.186 18.189 257.208C17.1385 265.23 18.189 290.554 18.189 290.554C19.2197 291.215 20.4186 291.567 21.6432 291.567C22.8678 291.567 24.0666 291.215 25.0974 290.554C25.0974 290.554 29.4128 270.291 31.4096 261.162C33.4064 252.033 33.7566 246.764 34.7976 241.107C36.0468 234.258 38.7533 202.321 38.7533 202.321L39.8322 202.387L42.6713 238.458C41.784 241.116 41.1751 243.858 40.8543 246.641C40.0688 252.516 41.6776 282.078 41.6776 282.078C42.8298 282.719 44.1363 283.029 45.4535 282.976C46.7707 282.922 48.0478 282.507 49.1444 281.776C49.1444 281.776 56.3556 242.621 56.3556 236.661C56.3556 232.725 55.6837 180.762 55.6837 180.762L18.189 190.392Z" fill="#174399"></path><path d="M27.9649 111.628C27.9649 111.628 28.4286 120.511 28.2299 121.296C28.0312 122.081 24.1416 124.692 23.0155 125.629C21.8893 126.565 29.1668 133.736 32.6967 135.354C36.2266 136.971 47.4504 132.705 47.6492 127.199C47.8479 121.693 45.7564 117.067 44.0057 116.793C42.2549 116.519 27.9649 111.628 27.9649 111.628Z" fill="#FFCEA9"></path><path d="M52.3147 128.107C52.8352 124.191 50.2516 120.464 52.7595 117.342C61.5322 125.941 60.4155 148.702 62.4123 163.261C68.9233 170.072 82.0209 176.779 85.7117 178.397C86.3836 178.699 86.9608 179.021 86.8284 179.75C86.2984 182.588 85.4751 183.666 83.7811 186.372C75.1124 182.635 68.8665 180.487 58.0401 170.204C57.0131 169.096 56.0942 167.892 55.2957 166.61C52.2011 157.414 51.4251 134.871 52.3147 128.107Z" fill="#FFCEA9"></path><path d="M26.9712 122.829C26.9712 122.829 33.4254 132.44 42.4252 133.386C45.2643 130.548 45.5198 120.634 41.5924 117.455C41.5924 117.455 45.2075 114.542 47.6775 115.109C50.33 116.717 52.305 119.236 53.2326 122.195C55.5224 128.806 56.5965 135.777 56.4029 142.77C56.2515 152.23 56.4029 181.008 56.4029 181.008C56.4029 181.008 55.1443 187.1 47.0056 191.631C38.8669 196.163 32.8102 196.607 27.293 195.321C22.7315 194.261 18.965 192.653 17.4035 189.351C17.8105 182.729 20.7631 165.493 19.6559 157.187C18.5486 148.882 16.8168 142.666 16.3436 135.95C15.8704 129.233 17.2332 129.328 20.6022 126.972C22.6241 125.442 24.7524 124.057 26.9712 122.829Z" fill="#F4F4F4"></path><path d="M48.0845 98.3841C47.0246 91.4877 42.0562 86.2563 34.9396 86.6537C31.3042 86.8563 27.8982 88.4939 25.4705 91.2063C23.0427 93.9187 21.792 97.484 21.9934 101.118C22.1097 103.212 22.7094 105.25 23.7454 107.073C24.7814 108.897 26.2256 110.456 27.9649 111.628C28.214 112.674 28.5856 113.687 29.0721 114.646C31.58 117.588 39.1982 119.376 41.3748 119.092C44.2139 118.695 45.7091 117.522 47.053 114.457C49.4094 109.017 48.6712 101.78 48.0845 98.3841Z" fill="#FFCEA9"></path><path d="M27.9649 111.628L28.6178 105.611C28.6178 105.611 23.6589 92.8594 35.3275 95.3095C42.993 96.9177 44.9236 97.6178 47.2611 92.4715C49.5986 87.3253 41.3558 82.6993 31.5799 83.9575C28.2126 84.3124 25.1013 85.9179 22.8616 88.4563C20.6219 90.9947 19.417 94.2811 19.4855 97.6651C19.741 101.477 20.7536 109.14 27.9649 111.628Z" fill="#3A2C6D"></path><path d="M14.3563 131.939C17.7253 130.993 15.1607 131.778 17.7253 130.993C26.498 139.601 25.4097 154.34 27.3971 168.908C32.2424 176.912 50.2232 187.762 50.2232 187.762C50.4504 189.314 49.9015 189.768 47.9614 192.899C39.3023 189.162 32.0437 185.936 21.2174 175.663C20.7915 175.256 20.1669 175.152 19.9871 174.594C16.8925 165.295 13.4572 138.712 14.3563 131.939Z" fill="#FFCEA9"></path><path d="M94.3614 149.884L81.2921 194.554L52.6175 206.01L63.0748 162.494L94.3614 149.884Z" fill="#F4F4F4"></path><path d="M45.6997 188.065C46.1255 186.542 47.2328 186.92 48.4725 187.298C49.817 187.843 51.2939 187.971 52.7122 187.667C53.8951 187.298 54.7468 186.286 55.75 185.615C56.3237 185.273 56.9753 185.084 57.6427 185.066C57.5859 185.454 56.9897 187.724 56.9897 187.724C56.9897 187.724 63.2735 187.79 63.9171 187.658C64.1301 187.629 64.347 187.666 64.5388 187.763C64.7306 187.86 64.8883 188.013 64.991 188.202C65.0937 188.391 65.1365 188.606 65.1137 188.82C65.0909 189.034 65.0036 189.236 64.8634 189.399L65.2893 189.332C66.5763 189.049 67.1252 191.016 65.8287 191.31C65.488 191.385 65.1379 191.423 64.7782 191.47C65.6205 191.792 65.8287 193.183 64.7782 193.362L64.4565 193.419C64.3087 193.475 64.1503 193.498 63.9928 193.485H63.794C63.8239 193.635 63.8227 193.79 63.7908 193.94C63.7588 194.089 63.6966 194.231 63.608 194.356C63.5195 194.481 63.4063 194.586 63.2756 194.666C63.1449 194.745 62.9993 194.798 62.8477 194.819C59.7815 195.226 55.2768 196.446 52.4945 193.92C50.5691 193.731 48.6887 193.222 46.9299 192.416C45.2359 191.612 45.1886 189.891 45.6997 188.065Z" fill="#FFCEA9"></path><path d="M77.0715 184.413H77.4973C77.3276 184.28 77.2024 184.099 77.1386 183.893C77.0747 183.687 77.0752 183.466 77.14 183.261C77.2048 183.055 77.3308 182.874 77.5012 182.742C77.6715 182.61 77.8782 182.533 78.0935 182.521C78.756 182.521 85.2196 181.168 85.2196 181.168L85.9956 178.51C85.9956 178.359 87.1218 179.04 87.1596 179.068C87.7069 179.427 88.1663 179.903 88.5038 180.464C88.8413 181.024 89.0482 181.653 89.1091 182.304C89.1405 183.219 88.9892 184.131 88.6643 184.987C88.3393 185.843 87.8471 186.625 87.2164 187.289C86.0547 188.461 84.4848 189.139 82.8348 189.181C82.0493 189.228 81.2922 189.266 80.6203 189.323C80.4716 189.323 80.3244 189.294 80.1871 189.236C80.0499 189.179 79.9253 189.095 79.8206 188.99C79.7159 188.884 79.6332 188.759 79.5771 188.621C79.5211 188.484 79.4929 188.336 79.4941 188.188H79.2954C79.1429 188.224 78.9842 188.224 78.8317 188.188H78.5004C77.4027 188.188 77.3175 186.826 78.0651 186.296C77.715 186.296 77.3554 186.362 77.0052 186.362C75.633 186.447 75.7087 184.404 77.0715 184.413Z" fill="#FFCEA9"></path><path d="M55.9771 133.935C55.9771 133.935 59.2894 133.764 60.6616 131.835C60.4061 128.533 56.1758 115.999 47.6776 115.062C49.9941 116.684 51.8312 118.9 52.9961 121.476C54.5386 125.25 55.9771 133.935 55.9771 133.935Z" fill="#EDEDED"></path><path d="M12.8232 150.499C12.8232 150.499 21.2836 153.413 27.2457 148.513C27.8986 147.387 23.7914 132.998 23.7914 132.998C23.7914 132.998 20.2426 125.638 14.6875 128.561C9.13236 131.484 12.8232 150.499 12.8232 150.499Z" fill="#EDEDED"></path><path opacity="0.4" d="M99.0837 382.383C101.781 382.383 103.967 381.121 103.967 379.564C103.967 378.007 101.781 376.745 99.0837 376.745C96.3868 376.745 94.2005 378.007 94.2005 379.564C94.2005 381.121 96.3868 382.383 99.0837 382.383Z" fill="#D6D8E5"></path><path opacity="0.4" d="M190.54 434.517C193.237 434.517 195.423 433.255 195.423 431.698C195.423 430.141 193.237 428.879 190.54 428.879C187.843 428.879 185.657 430.141 185.657 431.698C185.657 433.255 187.843 434.517 190.54 434.517Z" fill="#D6D8E5"></path><path opacity="0.4" d="M349.064 337.873C351.761 337.873 353.947 336.611 353.947 335.054C353.947 333.497 351.761 332.235 349.064 332.235C346.367 332.235 344.181 333.497 344.181 335.054C344.181 336.611 346.367 337.873 349.064 337.873Z" fill="#D6D8E5"></path><path d="M95.9039 284.093V378.996C95.9256 379.289 96.0246 379.572 96.1908 379.814C96.3571 380.057 96.5846 380.251 96.8503 380.377C97.5935 380.755 98.4155 380.952 99.2493 380.952C100.083 380.952 100.905 380.755 101.648 380.377C101.913 380.25 102.14 380.056 102.307 379.813C102.473 379.571 102.572 379.289 102.595 378.996V284.093H95.9039Z" fill="#C1C4D3"></path><path d="M187.578 321.025V431.168C187.594 431.453 187.681 431.73 187.831 431.973C187.982 432.216 188.191 432.417 188.439 432.559C189.075 432.935 189.801 433.133 190.54 433.133C191.279 433.133 192.004 432.935 192.641 432.559C192.89 432.418 193.1 432.216 193.252 431.974C193.404 431.731 193.493 431.454 193.511 431.168V321.025H187.578Z" fill="#C1C4D3"></path><path d="M346.093 244.522V334.335C346.11 334.62 346.198 334.896 346.351 335.138C346.503 335.379 346.714 335.578 346.963 335.716C347.598 336.093 348.322 336.291 349.06 336.291C349.797 336.291 350.521 336.093 351.156 335.716C351.406 335.578 351.616 335.379 351.769 335.138C351.921 334.896 352.009 334.62 352.026 334.335V244.522H346.093Z" fill="#C1C4D3"></path><path d="M190.54 349.292L89.9797 291.255V284.472L190.54 342.518V349.292Z" fill="#62C8E8"></path><path d="M360.089 244.863L190.521 342.726L89.9514 284.689L259.52 186.826L360.089 244.863Z" fill="#6CD4FF"></path><path d="M360.108 251.428L190.54 349.292V342.518L360.108 244.655V251.428Z" fill="#5CBFD6"></path><path d="M311.711 225.337L284.674 247.975L259.974 238.146L287.011 215.508L311.711 225.337Z" fill="#F4F4F4"></path><path d="M305.437 226.387L271.756 245.828L250.548 233.586L284.229 214.146L305.437 226.387Z" fill="#F4F4F4"></path><path d="M274.009 240.577L271.945 241.769L257.958 233.7L260.021 232.508L274.009 240.577Z" fill="#D6D8E5"></path><path d="M278.646 237.9L276.583 239.092L262.605 231.023L264.668 229.831L278.646 237.9Z" fill="#D6D8E5"></path><path d="M283.113 235.327L281.049 236.509L267.072 228.45L269.135 227.258L283.113 235.327Z" fill="#D6D8E5"></path><path d="M293.598 229.273L291.535 230.465L283.396 225.772L285.46 224.58L293.598 229.273Z" fill="#D6D8E5"></path><path d="M298.065 226.699L296.002 227.882L287.863 223.19L289.926 221.998L298.065 226.699Z" fill="#D6D8E5"></path><path d="M275.57 244.352C276.128 244.115 305.437 226.378 305.437 226.378L274.822 244.068L275.57 244.352Z" fill="#D6D6D6"></path><path opacity="0.2" d="M280.359 271.738C284.414 271.738 287.702 269.841 287.702 267.5C287.702 265.16 284.414 263.262 280.359 263.262C276.303 263.262 273.015 265.16 273.015 267.5C273.015 269.841 276.303 271.738 280.359 271.738Z" fill="black"></path><path d="M288.422 266.895V255.59L273.763 255.959V266.365C273.488 267.614 274.179 268.929 275.854 269.894C277.466 270.715 279.25 271.142 281.059 271.142C282.868 271.142 284.652 270.715 286.264 269.894C286.858 269.632 287.372 269.215 287.751 268.688C288.131 268.161 288.362 267.542 288.422 266.895Z" fill="#A6CE28"></path><path d="M281.078 259.828C285.134 259.828 288.422 257.931 288.422 255.59C288.422 253.25 285.134 251.352 281.078 251.352C277.022 251.352 273.734 253.25 273.734 255.59C273.734 257.931 277.022 259.828 281.078 259.828Z" fill="#BCD64D"></path><path d="M287.258 255.59C287.258 256.281 286.69 257.009 285.687 257.577C284.412 258.257 282.995 258.627 281.551 258.655H281.068C279.465 258.689 277.879 258.315 276.46 257.567C275.466 257 274.889 256.271 274.889 255.581C274.889 254.89 275.466 254.171 276.46 253.594C277.879 252.847 279.465 252.473 281.068 252.506H281.542C282.986 252.535 284.403 252.905 285.677 253.585C286.69 254.181 287.258 254.9 287.258 255.59Z" fill="#28221C"></path><path opacity="0.07" d="M287.258 255.59C287.258 256.281 286.69 257.009 285.687 257.577C284.42 258.281 282.995 258.651 281.546 258.651C280.097 258.651 278.672 258.281 277.406 257.577C276.412 257.009 275.835 256.281 275.835 255.59C275.835 254.9 276.412 254.181 277.406 253.604C278.672 252.9 280.097 252.53 281.546 252.53C282.995 252.53 284.42 252.9 285.687 253.604C286.69 254.181 287.258 254.9 287.258 255.59Z" fill="white"></path><path d="M287.352 260.822L285.791 259.923L285.034 260.368L285.791 260.803V261.087L287.248 261.928V262.203C287.599 262.704 287.915 263.229 288.194 263.773L288.251 263.726V267.368C288.251 268.314 287.693 268.002 287.447 267.86L285.81 266.914L285.053 267.358L285.81 267.794V268.077L287.447 269.023C287.617 269.123 287.798 269.202 287.986 269.26L287.882 269.723L288.734 269.241C288.915 269.087 289.055 268.891 289.141 268.669C289.226 268.448 289.256 268.209 289.226 267.973V264.189C289.19 263.523 289.002 262.873 288.678 262.29C288.353 261.706 287.9 261.204 287.352 260.822Z" fill="#8DA01F"></path><path d="M286.671 269.468L285.034 268.522V267.358L286.671 268.304C286.907 268.437 287.475 268.759 287.475 267.803V264.019C287.447 263.697 287.348 263.386 287.184 263.108C287.02 262.83 286.796 262.592 286.529 262.411L285.043 261.55V260.386L286.605 261.285C287.15 261.661 287.603 262.154 287.931 262.729C288.258 263.304 288.452 263.945 288.497 264.606V268.39C288.478 269.411 288.005 270.234 286.671 269.468Z" fill="#99B524"></path><path opacity="0.2" d="M135.481 286.988C139.536 286.988 142.824 285.091 142.824 282.75C142.824 280.409 139.536 278.512 135.481 278.512C131.425 278.512 128.137 280.409 128.137 282.75C128.137 285.091 131.425 286.988 135.481 286.988Z" fill="black"></path><path d="M143.544 282.145V270.84L128.885 271.209V281.615C128.61 282.873 129.31 284.188 130.976 285.143C132.588 285.964 134.372 286.392 136.181 286.392C137.99 286.392 139.774 285.964 141.386 285.143C141.981 284.882 142.495 284.466 142.875 283.939C143.254 283.411 143.485 282.792 143.544 282.145Z" fill="#F7B03E"></path><path d="M136.2 275.078C140.256 275.078 143.544 273.18 143.544 270.84C143.544 268.499 140.256 266.602 136.2 266.602C132.144 266.602 128.856 268.499 128.856 270.84C128.856 273.18 132.144 275.078 136.2 275.078Z" fill="#FCC068"></path><path d="M142.38 270.84C142.38 271.53 141.802 272.249 140.809 272.826C139.532 273.501 138.117 273.87 136.673 273.905H136.2C134.596 273.939 133.01 273.564 131.591 272.817C130.588 272.24 130.02 271.521 130.02 270.83C130.02 270.14 130.588 269.411 131.591 268.834C133.011 268.09 134.597 267.719 136.2 267.756H136.673C138.116 267.783 139.533 268.149 140.809 268.825C141.802 269.421 142.38 270.149 142.38 270.84Z" fill="#28221C"></path><path opacity="0.07" d="M142.38 270.84C142.38 271.53 141.802 272.249 140.809 272.826C139.542 273.531 138.117 273.9 136.668 273.9C135.219 273.9 133.794 273.531 132.528 272.826C131.582 272.249 130.957 271.53 130.957 270.84C130.957 270.149 131.534 269.421 132.528 268.844C133.794 268.14 135.219 267.77 136.668 267.77C138.117 267.77 139.542 268.14 140.809 268.844C141.802 269.421 142.38 270.149 142.38 270.84Z" fill="white"></path><path d="M142.465 276.071L140.913 275.172L140.146 275.608L140.913 276.052V276.336L142.37 277.178L142.323 277.452C142.676 277.952 142.993 278.477 143.269 279.023L143.316 278.975V282.617C143.316 283.563 142.758 283.251 142.522 283.109L140.884 282.163L140.118 282.599L140.884 283.043V283.327L142.522 284.273C142.688 284.372 142.866 284.452 143.052 284.509L142.957 284.973L143.809 284.491C143.993 284.337 144.136 284.14 144.224 283.917C144.312 283.693 144.341 283.451 144.31 283.213V279.429C144.276 278.767 144.092 278.121 143.772 277.539C143.453 276.957 143.006 276.456 142.465 276.071Z" fill="#C9883A"></path><path d="M141.793 284.746L140.146 283.8V282.627L141.793 283.573C142.029 283.715 142.588 284.036 142.588 283.081V279.297C142.556 278.975 142.455 278.664 142.292 278.385C142.128 278.105 141.907 277.865 141.641 277.679L140.146 276.828V275.655L141.708 276.601C142.253 276.976 142.707 277.469 143.035 278.044C143.362 278.619 143.556 279.261 143.6 279.921V283.705C143.6 284.661 143.127 285.484 141.793 284.746Z" fill="#E09C3B"></path><path opacity="0.2" d="M229.227 254.748L207.461 242.176C207.271 242.065 207.056 242.006 206.836 242.006C206.616 242.006 206.401 242.065 206.211 242.176L167.997 264.237L190.379 277.178L229.227 254.748Z" fill="black"></path><path d="M230.258 252.279L208.492 239.707C208.303 239.596 208.087 239.537 207.868 239.537C207.648 239.537 207.432 239.596 207.243 239.707L169.029 261.768L191.439 274.7L230.258 252.279Z" fill="#F4F4F4"></path><path d="M190.407 270.074L188.742 271.02C188.609 271.105 188.628 271.237 188.742 271.332L190.332 272.278C190.414 272.319 190.504 272.341 190.596 272.341C190.689 272.341 190.779 272.319 190.861 272.278L192.518 271.332C192.65 271.256 192.641 271.124 192.518 271.029L190.937 270.083C190.855 270.042 190.765 270.02 190.673 270.018C190.582 270.017 190.491 270.036 190.407 270.074Z" fill="#2B303F"></path><path d="M192.754 268.721L191.098 269.667C190.956 269.742 190.975 269.884 191.098 269.97L192.679 270.916C192.761 270.955 192.852 270.975 192.943 270.975C193.035 270.975 193.126 270.955 193.208 270.916L194.865 269.97C195.007 269.894 194.988 269.752 194.865 269.667L193.284 268.721C193.203 268.677 193.112 268.654 193.019 268.654C192.927 268.654 192.836 268.677 192.754 268.721Z" fill="#2B303F"></path><path d="M195.13 267.349L193.473 268.295C193.341 268.371 193.35 268.513 193.473 268.598L195.054 269.544C195.137 269.583 195.227 269.604 195.319 269.604C195.411 269.604 195.501 269.583 195.584 269.544L197.249 268.598C197.382 268.522 197.363 268.38 197.249 268.295L195.66 267.349C195.578 267.305 195.487 267.282 195.395 267.282C195.302 267.282 195.211 267.305 195.13 267.349Z" fill="#2B303F"></path><path d="M197.458 266.006L195.792 266.952C195.66 267.027 195.678 267.169 195.792 267.255L197.382 268.201C197.463 268.244 197.554 268.267 197.647 268.267C197.739 268.267 197.83 268.244 197.912 268.201L199.568 267.255C199.71 267.179 199.691 267.037 199.568 266.952L197.988 266.006C197.905 265.966 197.814 265.946 197.723 265.946C197.631 265.946 197.54 265.966 197.458 266.006Z" fill="#2B303F"></path><path d="M199.805 264.643L198.148 265.589C198.016 265.665 198.025 265.798 198.148 265.892L199.729 266.838C199.812 266.878 199.902 266.898 199.994 266.898C200.086 266.898 200.176 266.878 200.259 266.838L201.924 265.892C202.057 265.807 202.038 265.675 201.924 265.58L200.335 264.634C200.252 264.594 200.161 264.574 200.068 264.576C199.976 264.577 199.886 264.6 199.805 264.643Z" fill="#2B303F"></path><path d="M202.161 263.291L200.495 264.237C200.363 264.322 200.382 264.454 200.495 264.549L202.085 265.495C202.167 265.539 202.258 265.562 202.35 265.562C202.443 265.562 202.534 265.539 202.615 265.495L204.271 264.549C204.404 264.473 204.394 264.331 204.271 264.246L202.691 263.3C202.609 263.259 202.519 263.237 202.427 263.235C202.335 263.234 202.244 263.253 202.161 263.291Z" fill="#2B303F"></path><path d="M204.508 261.938L202.852 262.884C202.71 262.96 202.729 263.102 202.852 263.187L204.432 264.133C204.515 264.172 204.606 264.193 204.697 264.193C204.789 264.193 204.88 264.172 204.962 264.133L206.618 263.187C206.76 263.111 206.741 262.969 206.618 262.884L205.038 261.938C204.957 261.894 204.865 261.871 204.773 261.871C204.68 261.871 204.589 261.894 204.508 261.938Z" fill="#2B303F"></path><path d="M206.855 260.576L205.199 261.522C205.066 261.607 205.076 261.739 205.199 261.834L206.779 262.78C206.861 262.821 206.952 262.843 207.044 262.843C207.136 262.843 207.227 262.821 207.309 262.78L208.975 261.834C209.107 261.758 209.088 261.626 208.975 261.531L207.385 260.585C207.303 260.544 207.213 260.522 207.121 260.52C207.029 260.519 206.938 260.538 206.855 260.576Z" fill="#2B303F"></path><path d="M209.211 259.204L207.546 260.15C207.413 260.226 207.432 260.368 207.546 260.453L209.136 261.399C209.218 261.44 209.309 261.462 209.401 261.462C209.493 261.462 209.583 261.44 209.666 261.399L211.322 260.453C211.464 260.377 211.445 260.235 211.322 260.15L209.741 259.204C209.66 259.16 209.569 259.137 209.476 259.137C209.384 259.137 209.293 259.16 209.211 259.204Z" fill="#2B303F"></path><path d="M211.558 257.861L209.902 258.807C209.77 258.882 209.779 259.015 209.902 259.109L211.483 260.055C211.565 260.095 211.656 260.115 211.748 260.115C211.839 260.115 211.93 260.095 212.013 260.055L213.678 259.109C213.811 259.024 213.792 258.892 213.678 258.797L212.088 257.851C212.005 257.811 211.914 257.791 211.822 257.793C211.73 257.794 211.64 257.818 211.558 257.861Z" fill="#2B303F"></path><path d="M213.877 256.508L212.211 257.454C212.079 257.53 212.098 257.672 212.211 257.757L213.801 258.703C213.883 258.747 213.974 258.77 214.066 258.77C214.159 258.77 214.25 258.747 214.331 258.703L215.987 257.757C216.12 257.681 216.11 257.539 215.987 257.454L214.407 256.508C214.324 256.468 214.234 256.448 214.142 256.448C214.05 256.448 213.96 256.468 213.877 256.508Z" fill="#2B303F"></path><path d="M216.262 255.146L214.606 256.092C214.464 256.167 214.483 256.3 214.606 256.394L216.186 257.34C216.269 257.38 216.359 257.4 216.451 257.4C216.543 257.4 216.633 257.38 216.716 257.34L218.372 256.394C218.514 256.309 218.495 256.177 218.372 256.082L216.792 255.136C216.709 255.096 216.618 255.076 216.526 255.078C216.434 255.079 216.343 255.103 216.262 255.146Z" fill="#2B303F"></path><path d="M218.609 253.793L216.953 254.739C216.82 254.824 216.83 254.956 216.953 255.051L218.533 255.997C218.615 256.039 218.706 256.06 218.798 256.06C218.89 256.06 218.981 256.039 219.063 255.997L220.729 255.051C220.861 254.975 220.842 254.843 220.729 254.748L219.139 253.802C219.057 253.761 218.966 253.739 218.875 253.738C218.783 253.736 218.692 253.755 218.609 253.793Z" fill="#2B303F"></path><path d="M222.101 251.787L219.262 253.396C219.129 253.471 219.148 253.613 219.262 253.698L220.852 254.644C220.934 254.684 221.025 254.704 221.117 254.704C221.208 254.704 221.299 254.684 221.382 254.644L224.221 253.036C224.353 252.96 224.334 252.819 224.221 252.733L222.631 251.787C222.55 251.742 222.459 251.718 222.366 251.718C222.273 251.718 222.182 251.742 222.101 251.787Z" fill="#2B303F"></path><path d="M191.609 266.772L189.953 267.718C189.821 267.794 189.83 267.926 189.953 268.021L191.533 268.967C191.616 269.006 191.707 269.027 191.798 269.027C191.89 269.027 191.981 269.006 192.063 268.967L193.729 268.021C193.861 267.936 193.843 267.803 193.729 267.709L192.111 266.772C192.032 266.735 191.947 266.716 191.86 266.716C191.773 266.716 191.688 266.735 191.609 266.772Z" fill="#2B303F"></path><path d="M194.003 265.391L192.347 266.337C192.205 266.413 192.224 266.554 192.347 266.64L193.928 267.586C194.01 267.625 194.101 267.646 194.193 267.646C194.284 267.646 194.375 267.625 194.458 267.586L196.123 266.64C196.256 266.564 196.237 266.422 196.123 266.337L194.533 265.391C194.452 265.347 194.361 265.324 194.268 265.324C194.176 265.324 194.085 265.347 194.003 265.391Z" fill="#2B303F"></path><path d="M196.322 264.029L194.666 264.975C194.524 265.06 194.543 265.192 194.666 265.287L196.246 266.233C196.328 266.274 196.419 266.296 196.511 266.296C196.603 266.296 196.694 266.274 196.776 266.233L198.432 265.287C198.574 265.211 198.555 265.069 198.432 264.984L196.852 264.038C196.77 263.997 196.68 263.975 196.588 263.973C196.496 263.972 196.405 263.991 196.322 264.029Z" fill="#2B303F"></path><path d="M198.678 262.666L197.013 263.612C196.88 263.688 196.899 263.821 197.013 263.915L198.603 264.861C198.685 264.901 198.776 264.921 198.868 264.921C198.959 264.921 199.05 264.901 199.133 264.861L200.789 263.915C200.921 263.83 200.912 263.698 200.789 263.603L199.208 262.657C199.125 262.617 199.034 262.597 198.942 262.598C198.85 262.6 198.76 262.623 198.678 262.666Z" fill="#2B303F"></path><path d="M201.016 261.323L199.35 262.269C199.218 262.345 199.237 262.487 199.35 262.572L200.94 263.518C201.022 263.562 201.113 263.585 201.205 263.585C201.298 263.585 201.389 263.562 201.47 263.518L203.126 262.572C203.259 262.496 203.249 262.354 203.126 262.269L201.546 261.323C201.463 261.284 201.373 261.263 201.281 261.263C201.189 261.263 201.099 261.284 201.016 261.323Z" fill="#2B303F"></path><path d="M203.372 259.961L201.707 260.907C201.574 260.992 201.593 261.124 201.707 261.219L203.297 262.165C203.377 262.206 203.466 262.228 203.557 262.228C203.647 262.228 203.737 262.206 203.817 262.165L205.483 261.219C205.615 261.143 205.596 261.011 205.483 260.916L203.893 259.97C203.812 259.929 203.724 259.907 203.634 259.906C203.544 259.904 203.454 259.923 203.372 259.961Z" fill="#2B303F"></path><path d="M205.719 258.599L204.063 259.545C203.931 259.62 203.94 259.753 204.063 259.847L205.644 260.793C205.726 260.833 205.817 260.853 205.909 260.853C206 260.853 206.091 260.833 206.174 260.793L207.839 259.847C207.972 259.762 207.953 259.63 207.839 259.535L206.249 258.589C206.166 258.549 206.075 258.529 205.983 258.531C205.891 258.532 205.801 258.556 205.719 258.599Z" fill="#2B303F"></path><path d="M208.076 257.246L206.42 258.192C206.278 258.268 206.297 258.409 206.42 258.495L208 259.441C208.081 259.484 208.173 259.507 208.265 259.507C208.358 259.507 208.449 259.484 208.53 259.441L210.186 258.495C210.328 258.419 210.309 258.277 210.186 258.192L208.606 257.246C208.523 257.206 208.432 257.186 208.341 257.186C208.249 257.186 208.159 257.206 208.076 257.246Z" fill="#2B303F"></path><path d="M210.432 255.884L208.776 256.83C208.634 256.915 208.653 257.047 208.776 257.142L210.356 258.088C210.439 258.129 210.529 258.151 210.621 258.151C210.714 258.151 210.804 258.129 210.886 258.088L212.543 257.142C212.685 257.066 212.666 256.934 212.543 256.839L210.962 255.893C210.88 255.852 210.79 255.83 210.698 255.828C210.607 255.827 210.516 255.846 210.432 255.884Z" fill="#2B303F"></path><path d="M212.789 254.521L211.123 255.467C210.991 255.543 211.009 255.676 211.123 255.77L212.713 256.716C212.796 256.756 212.886 256.776 212.978 256.776C213.07 256.776 213.16 256.756 213.243 256.716L214.899 255.77C215.032 255.685 215.022 255.553 214.899 255.458L213.319 254.512C213.236 254.472 213.145 254.452 213.052 254.453C212.96 254.455 212.87 254.478 212.789 254.521Z" fill="#2B303F"></path><path d="M215.145 253.169L213.479 254.115C213.347 254.19 213.366 254.332 213.479 254.417L215.069 255.363C215.151 255.407 215.242 255.43 215.334 255.43C215.427 255.43 215.518 255.407 215.599 255.363L217.255 254.417C217.388 254.342 217.378 254.2 217.255 254.115L215.675 253.169C215.592 253.129 215.502 253.109 215.41 253.109C215.318 253.109 215.228 253.129 215.145 253.169Z" fill="#2B303F"></path><path d="M217.501 251.806L215.836 252.752C215.703 252.837 215.722 252.97 215.836 253.065L217.416 254.011C217.498 254.052 217.589 254.074 217.681 254.074C217.773 254.074 217.864 254.052 217.946 254.011L219.612 253.065C219.744 252.989 219.725 252.856 219.612 252.762L218.022 251.816C217.942 251.775 217.853 251.753 217.763 251.751C217.673 251.75 217.583 251.769 217.501 251.806Z" fill="#2B303F"></path><path d="M189.272 268.106L186.433 269.714C186.3 269.799 186.319 269.932 186.433 270.026L188.022 270.972C188.105 271.014 188.195 271.036 188.287 271.036C188.379 271.036 188.47 271.014 188.552 270.972L191.344 269.355C191.477 269.279 191.458 269.137 191.344 269.052L189.754 268.106C189.678 268.072 189.596 268.055 189.513 268.055C189.43 268.055 189.348 268.072 189.272 268.106Z" fill="#2B303F"></path><path d="M221.987 251.693L220.322 252.639C220.245 252.676 220.161 252.696 220.076 252.696C219.99 252.696 219.906 252.676 219.83 252.639L218.154 251.693C218.022 251.617 218.022 251.494 218.154 251.409L218.287 251.333C218.41 251.267 218.41 251.144 218.287 251.068L216.517 250.056C216.375 249.971 216.375 249.848 216.517 249.763L217.577 249.157C217.654 249.12 217.738 249.1 217.823 249.1C217.909 249.1 217.993 249.12 218.069 249.157L219.725 250.103L220.066 250.302L220.312 250.444L220.568 250.586L221.987 251.409C222.12 251.494 222.12 251.636 221.987 251.693Z" fill="#2B303F"></path><path d="M181.303 264.804L179.638 265.75C179.505 265.826 179.524 265.959 179.638 266.053L181.228 266.999C181.309 267.038 181.398 267.059 181.488 267.059C181.578 267.059 181.667 267.038 181.748 266.999L183.414 266.053C183.546 265.968 183.527 265.836 183.414 265.741L181.824 264.795C181.743 264.755 181.653 264.735 181.562 264.737C181.472 264.738 181.383 264.761 181.303 264.804Z" fill="#2B303F"></path><path d="M183.641 263.452L181.985 264.398C181.852 264.473 181.862 264.606 181.985 264.7L183.565 265.646C183.648 265.686 183.738 265.706 183.83 265.706C183.922 265.706 184.012 265.686 184.095 265.646L185.761 264.7C185.893 264.615 185.874 264.483 185.761 264.388L184.171 263.442C184.088 263.402 183.997 263.382 183.905 263.384C183.813 263.385 183.722 263.409 183.641 263.452Z" fill="#2B303F"></path><path d="M185.988 262.099L184.332 263.045C184.19 263.12 184.209 263.253 184.332 263.348L185.912 264.294C185.995 264.333 186.085 264.353 186.177 264.353C186.269 264.353 186.359 264.333 186.442 264.294L188.098 263.348C188.24 263.262 188.221 263.13 188.098 263.035L186.518 262.089C186.435 262.049 186.344 262.029 186.252 262.031C186.16 262.032 186.069 262.056 185.988 262.099Z" fill="#2B303F"></path><path d="M205.946 250.586L204.29 251.532C204.158 251.608 204.167 251.75 204.29 251.835L205.871 252.781C205.953 252.82 206.044 252.841 206.136 252.841C206.227 252.841 206.318 252.82 206.401 252.781L208.066 251.835C208.199 251.759 208.18 251.617 208.066 251.532L206.476 250.586C206.395 250.542 206.304 250.519 206.211 250.519C206.119 250.519 206.028 250.542 205.946 250.586Z" fill="#2B303F"></path><path d="M208.293 249.233L206.637 250.179C206.495 250.255 206.514 250.397 206.637 250.482L208.218 251.428C208.3 251.467 208.391 251.488 208.483 251.488C208.574 251.488 208.665 251.467 208.748 251.428L210.404 250.482C210.546 250.406 210.527 250.264 210.404 250.179L208.823 249.233C208.742 249.189 208.651 249.166 208.558 249.166C208.466 249.166 208.375 249.189 208.293 249.233Z" fill="#2B303F"></path><path d="M210.64 247.852L208.975 248.798C208.842 248.874 208.861 249.016 208.975 249.101L210.565 250.047C210.647 250.086 210.738 250.107 210.83 250.107C210.921 250.107 211.012 250.086 211.095 250.047L212.751 249.101C212.883 249.025 212.874 248.883 212.751 248.798L211.17 247.852C211.089 247.808 210.998 247.785 210.905 247.785C210.813 247.785 210.722 247.808 210.64 247.852Z" fill="#2B303F"></path><path d="M212.978 246.528L211.322 247.474C211.189 247.549 211.199 247.691 211.322 247.776L212.902 248.722C212.985 248.762 213.075 248.782 213.167 248.782C213.259 248.782 213.349 248.762 213.432 248.722L215.098 247.776C215.23 247.701 215.211 247.559 215.098 247.474L213.508 246.528C213.426 246.484 213.335 246.461 213.243 246.461C213.15 246.461 213.059 246.484 212.978 246.528Z" fill="#2B303F"></path><path d="M188.94 260.405L186.669 261.711C186.537 261.787 186.556 261.919 186.669 262.014L188.259 262.96C188.342 262.999 188.432 263.02 188.524 263.02C188.616 263.02 188.706 262.999 188.789 262.96L191.051 261.654C191.183 261.578 191.164 261.437 191.051 261.351L189.461 260.405C189.381 260.362 189.292 260.339 189.201 260.339C189.11 260.339 189.02 260.362 188.94 260.405Z" fill="#2B303F"></path><path d="M203.609 251.939L201.338 253.244C201.205 253.32 201.224 253.452 201.338 253.547L202.928 254.493C203.01 254.532 203.101 254.553 203.193 254.553C203.284 254.553 203.375 254.532 203.458 254.493L205.719 253.187C205.852 253.112 205.842 252.97 205.719 252.885L204.139 251.939C204.058 251.895 203.966 251.872 203.874 251.872C203.781 251.872 203.69 251.895 203.609 251.939Z" fill="#2B303F"></path><path d="M200.628 253.632L189.593 260.008C189.451 260.084 189.47 260.226 189.593 260.311L191.174 261.257C191.257 261.296 191.347 261.317 191.439 261.317C191.53 261.317 191.621 261.296 191.704 261.257L202.748 254.89C202.88 254.805 202.861 254.673 202.7 254.578L201.12 253.632C201.043 253.597 200.959 253.578 200.874 253.578C200.789 253.578 200.705 253.597 200.628 253.632Z" fill="#2B303F"></path><path d="M189.972 265.06L188.316 266.006C188.174 266.081 188.193 266.214 188.316 266.309L189.896 267.255C189.978 267.296 190.069 267.318 190.161 267.318C190.253 267.318 190.344 267.296 190.426 267.255L192.092 266.309C192.224 266.233 192.205 266.1 192.092 266.006L190.502 265.06C190.42 265.018 190.329 264.997 190.237 264.997C190.145 264.997 190.054 265.018 189.972 265.06Z" fill="#2B303F"></path><path d="M192.319 263.707L190.663 264.653C190.53 264.738 190.54 264.871 190.663 264.965L192.243 265.911C192.325 265.953 192.416 265.974 192.508 265.974C192.6 265.974 192.691 265.953 192.773 265.911L194.439 264.965C194.571 264.889 194.552 264.757 194.439 264.662L192.849 263.716C192.767 263.675 192.677 263.653 192.585 263.652C192.493 263.65 192.402 263.669 192.319 263.707Z" fill="#2B303F"></path><path d="M194.666 262.354L193.01 263.3C192.877 263.376 192.887 263.518 193.01 263.603L194.59 264.549C194.672 264.593 194.763 264.616 194.855 264.616C194.948 264.616 195.039 264.593 195.12 264.549L196.786 263.603C196.918 263.527 196.899 263.385 196.786 263.3L195.196 262.354C195.114 262.313 195.023 262.291 194.931 262.291C194.839 262.291 194.748 262.313 194.666 262.354Z" fill="#2B303F"></path><path d="M197.022 261.001L195.357 261.947C195.224 262.023 195.243 262.165 195.357 262.25L196.947 263.196C197.028 263.236 197.117 263.256 197.207 263.256C197.297 263.256 197.386 263.236 197.467 263.196L199.133 262.25C199.265 262.165 199.246 262.033 199.133 261.938L197.543 260.992C197.462 260.95 197.372 260.928 197.281 260.93C197.19 260.931 197.101 260.956 197.022 261.001Z" fill="#2B303F"></path><path d="M199.369 259.639L197.704 260.585C197.571 260.661 197.59 260.793 197.704 260.888L199.294 261.834C199.376 261.875 199.466 261.897 199.559 261.897C199.651 261.897 199.741 261.875 199.824 261.834L201.48 260.888C201.612 260.812 201.603 260.68 201.48 260.585L199.899 259.639C199.817 259.598 199.726 259.576 199.634 259.576C199.542 259.576 199.451 259.598 199.369 259.639Z" fill="#2B303F"></path><path d="M201.716 258.258L200.051 259.204C199.918 259.289 199.937 259.422 200.051 259.516L201.641 260.462C201.723 260.504 201.813 260.525 201.906 260.525C201.998 260.525 202.088 260.504 202.171 260.462L203.827 259.516C203.959 259.44 203.95 259.308 203.827 259.213L202.246 258.267C202.164 258.226 202.074 258.204 201.982 258.203C201.891 258.201 201.8 258.22 201.716 258.258Z" fill="#2B303F"></path><path d="M204.063 256.934L202.398 257.88C202.265 257.955 202.284 258.097 202.398 258.182L203.987 259.128C204.069 259.172 204.16 259.195 204.252 259.195C204.345 259.195 204.436 259.172 204.517 259.128L206.174 258.182C206.316 258.107 206.297 257.965 206.174 257.88L204.593 256.934C204.511 256.892 204.42 256.87 204.328 256.87C204.236 256.87 204.145 256.892 204.063 256.934Z" fill="#2B303F"></path><path d="M206.41 255.571L204.754 256.517C204.612 256.593 204.631 256.725 204.754 256.82L206.334 257.766C206.417 257.806 206.508 257.826 206.599 257.826C206.691 257.826 206.782 257.806 206.864 257.766L208.521 256.82C208.662 256.735 208.644 256.602 208.521 256.508L206.94 255.562C206.857 255.522 206.766 255.502 206.674 255.503C206.582 255.505 206.492 255.528 206.41 255.571Z" fill="#2B303F"></path><path d="M208.757 254.219L207.101 255.165C206.959 255.24 206.978 255.373 207.101 255.467L208.681 256.413C208.764 256.455 208.854 256.477 208.946 256.477C209.038 256.477 209.129 256.455 209.211 256.413L210.868 255.467C211.009 255.392 210.991 255.259 210.868 255.165L209.287 254.219C209.205 254.177 209.114 254.155 209.022 254.155C208.93 254.155 208.839 254.177 208.757 254.219Z" fill="#2B303F"></path><path d="M211.104 252.866L209.448 253.812C209.315 253.897 209.325 254.029 209.448 254.124L211.028 255.07C211.111 255.112 211.201 255.133 211.293 255.133C211.385 255.133 211.476 255.112 211.558 255.07L213.224 254.124C213.356 254.048 213.337 253.916 213.224 253.821L211.634 252.875C211.552 252.834 211.462 252.812 211.37 252.811C211.278 252.809 211.188 252.828 211.104 252.866Z" fill="#2B303F"></path><path d="M213.451 251.513L211.795 252.459C211.662 252.535 211.672 252.677 211.795 252.762L213.375 253.708C213.458 253.749 213.548 253.771 213.64 253.771C213.732 253.771 213.823 253.749 213.905 253.708L215.571 252.762C215.703 252.686 215.684 252.544 215.571 252.459L213.981 251.513C213.9 251.469 213.809 251.446 213.716 251.446C213.624 251.446 213.533 251.469 213.451 251.513Z" fill="#2B303F"></path><path d="M215.77 250.151L214.104 251.097C213.972 251.173 213.991 251.305 214.104 251.4L215.694 252.346C215.775 252.385 215.864 252.405 215.954 252.405C216.044 252.405 216.133 252.385 216.214 252.346L217.88 251.4C218.013 251.314 217.994 251.182 217.88 251.087L216.29 250.141C216.209 250.101 216.119 250.081 216.029 250.083C215.938 250.085 215.849 250.108 215.77 250.151Z" fill="#2B303F"></path><path d="M187.625 266.422L184.19 268.399C184.057 268.475 184.076 268.617 184.19 268.702L185.78 269.648C185.86 269.689 185.949 269.711 186.04 269.711C186.13 269.711 186.22 269.689 186.3 269.648L189.735 267.671C189.877 267.586 189.858 267.453 189.735 267.368L188.155 266.422C188.074 266.378 187.982 266.355 187.89 266.355C187.797 266.355 187.706 266.378 187.625 266.422Z" fill="#2B303F"></path><path d="M186.527 264.417L184.871 265.363C184.729 265.438 184.748 265.571 184.871 265.665L186.451 266.611C186.534 266.651 186.625 266.671 186.716 266.671C186.808 266.671 186.899 266.651 186.981 266.611L188.647 265.665C188.78 265.58 188.761 265.448 188.647 265.353L187.057 264.407C186.974 264.367 186.883 264.347 186.791 264.349C186.699 264.35 186.609 264.374 186.527 264.417Z" fill="#2B303F"></path><path d="M188.874 263.064L187.218 264.01C187.086 264.095 187.095 264.227 187.218 264.322L188.798 265.268C188.881 265.309 188.971 265.331 189.063 265.331C189.156 265.331 189.246 265.309 189.328 265.268L190.994 264.322C191.127 264.246 191.108 264.114 190.994 264.019L189.404 263.073C189.322 263.032 189.232 263.01 189.14 263.008C189.049 263.007 188.958 263.026 188.874 263.064Z" fill="#2B303F"></path><path d="M191.221 261.711L189.565 262.657C189.433 262.733 189.442 262.875 189.565 262.96L191.145 263.906C191.227 263.95 191.318 263.973 191.41 263.973C191.503 263.973 191.594 263.95 191.675 263.906L193.341 262.96C193.473 262.884 193.455 262.742 193.341 262.657L191.751 261.711C191.668 261.671 191.578 261.651 191.486 261.651C191.394 261.651 191.304 261.671 191.221 261.711Z" fill="#2B303F"></path><path d="M193.578 260.358L191.912 261.304C191.779 261.38 191.798 261.522 191.912 261.607L193.502 262.553C193.583 262.592 193.672 262.613 193.762 262.613C193.852 262.613 193.941 262.592 194.022 262.553L195.688 261.607C195.82 261.531 195.801 261.389 195.688 261.304L194.098 260.358C194.018 260.314 193.929 260.291 193.838 260.291C193.747 260.291 193.657 260.314 193.578 260.358Z" fill="#2B303F"></path><path d="M195.896 258.996L194.231 259.942C194.098 260.018 194.117 260.15 194.231 260.245L195.82 261.191C195.902 261.23 195.991 261.25 196.081 261.25C196.171 261.25 196.26 261.23 196.341 261.191L198.006 260.245C198.139 260.16 198.12 260.027 198.006 259.932L196.417 258.986C196.335 258.946 196.246 258.926 196.155 258.928C196.065 258.93 195.976 258.953 195.896 258.996Z" fill="#2B303F"></path><path d="M198.271 257.643L196.606 258.589C196.473 258.665 196.492 258.797 196.606 258.892L198.196 259.838C198.278 259.879 198.369 259.901 198.461 259.901C198.553 259.901 198.644 259.879 198.726 259.838L200.382 258.892C200.514 258.816 200.505 258.684 200.382 258.589L198.801 257.643C198.719 257.602 198.629 257.58 198.536 257.58C198.444 257.58 198.354 257.602 198.271 257.643Z" fill="#2B303F"></path><path d="M200.628 256.29L198.962 257.236C198.83 257.322 198.849 257.454 198.962 257.549L200.552 258.495C200.634 258.536 200.725 258.558 200.817 258.558C200.909 258.558 201 258.536 201.082 258.495L202.738 257.549C202.871 257.473 202.861 257.341 202.738 257.246L201.158 256.3C201.076 256.259 200.986 256.237 200.894 256.235C200.802 256.234 200.711 256.252 200.628 256.29Z" fill="#2B303F"></path><path d="M202.965 254.938L201.3 255.884C201.167 255.959 201.186 256.101 201.3 256.186L202.89 257.132C202.971 257.176 203.062 257.199 203.155 257.199C203.247 257.199 203.338 257.176 203.42 257.132L205.076 256.186C205.208 256.111 205.199 255.969 205.076 255.884L203.495 254.938C203.413 254.896 203.322 254.874 203.23 254.874C203.138 254.874 203.048 254.896 202.965 254.938Z" fill="#2B303F"></path><path d="M205.36 253.585L203.694 254.531C203.562 254.606 203.581 254.748 203.694 254.834L205.284 255.78C205.367 255.819 205.457 255.84 205.549 255.84C205.641 255.84 205.731 255.819 205.814 255.78L207.47 254.834C207.612 254.758 207.593 254.616 207.47 254.531L205.89 253.585C205.808 253.541 205.717 253.518 205.625 253.518C205.532 253.518 205.441 253.541 205.36 253.585Z" fill="#2B303F"></path><path d="M207.659 252.223L206.003 253.169C205.861 253.244 205.88 253.377 206.003 253.471L207.584 254.417C207.666 254.457 207.757 254.477 207.849 254.477C207.94 254.477 208.031 254.457 208.114 254.417L209.77 253.471C209.912 253.386 209.893 253.254 209.77 253.159L208.189 252.213C208.106 252.173 208.015 252.153 207.923 252.155C207.831 252.156 207.741 252.18 207.659 252.223Z" fill="#2B303F"></path><path d="M210.006 250.87L208.35 251.816C208.208 251.901 208.227 252.033 208.35 252.128L209.931 253.074C210.013 253.116 210.104 253.137 210.196 253.137C210.288 253.137 210.378 253.116 210.461 253.074L212.117 252.128C212.259 252.052 212.24 251.92 212.117 251.825L210.536 250.879C210.454 250.838 210.364 250.816 210.272 250.815C210.181 250.813 210.09 250.832 210.006 250.87Z" fill="#2B303F"></path><path d="M215.259 247.852L210.697 250.482C210.555 250.558 210.574 250.699 210.697 250.785L212.278 251.731C212.359 251.774 212.45 251.797 212.543 251.797C212.635 251.797 212.726 251.774 212.808 251.731L217.378 249.101C217.511 249.025 217.492 248.883 217.378 248.798L215.77 247.852C215.691 247.811 215.603 247.79 215.514 247.79C215.425 247.79 215.338 247.811 215.259 247.852Z" fill="#2B303F"></path><path d="M184.18 265.826L181.918 267.132C181.786 267.207 181.795 267.34 181.918 267.434L183.499 268.38C183.582 268.42 183.672 268.44 183.764 268.44C183.855 268.44 183.946 268.42 184.029 268.38L186.3 267.075C186.433 266.999 186.414 266.857 186.253 266.772L184.672 265.826C184.596 265.788 184.512 265.769 184.426 265.769C184.341 265.769 184.257 265.788 184.18 265.826Z" fill="#2B303F"></path><path d="M224.457 253.14L191.108 272.391C190.975 272.467 190.994 272.599 191.108 272.694L191.902 273.148C191.985 273.19 192.075 273.211 192.167 273.211C192.26 273.211 192.35 273.19 192.432 273.148L225.773 253.897C225.915 253.821 225.896 253.689 225.773 253.594L224.987 253.14C224.905 253.099 224.814 253.077 224.722 253.077C224.63 253.077 224.539 253.099 224.457 253.14Z" fill="#2B303F"></path><path d="M185.439 254.001L185.657 254.124L191.42 257.454L201.659 251.542L201.877 251.419L195.896 247.975L185.439 254.001Z" fill="#BFBFBF"></path><path d="M185.657 254.124L191.42 257.454L201.659 251.541L195.896 248.221L185.657 254.124Z" fill="#E5E5E5"></path><path d="M169.01 261.768V262.279C169.01 262.647 169.108 263.008 169.292 263.327C169.477 263.646 169.742 263.911 170.061 264.095L190.369 275.816C190.688 276.003 191.051 276.101 191.42 276.1C191.789 276.098 192.151 276.001 192.47 275.816L229.208 254.606C229.528 254.423 229.793 254.159 229.978 253.84C230.162 253.521 230.259 253.159 230.258 252.79V252.279L191.458 274.699L169.01 261.768Z" fill="#E5E5E5"></path><path d="M192.007 275.012C192.355 275.146 192.728 275.2 193.1 275.171C193.472 275.141 193.832 275.029 194.155 274.841L230.741 253.727C231.058 253.543 231.331 253.292 231.541 252.991C231.75 252.69 231.891 252.347 231.952 251.986L235.955 228.118C235.965 227.983 235.965 227.847 235.955 227.712C235.956 227.383 235.892 227.058 235.767 226.755C235.642 226.451 235.459 226.175 235.227 225.943L197.23 247.852C196.999 247.991 196.8 248.177 196.646 248.399C196.493 248.621 196.389 248.873 196.341 249.139L192.007 275.012Z" fill="#F4F4F4"></path><path d="M191.42 274.7L191.666 274.841C191.776 274.906 191.889 274.963 192.007 275.012L196.341 249.167C196.389 248.902 196.493 248.649 196.646 248.428C196.8 248.206 196.999 248.019 197.23 247.88L235.255 225.943C235.102 225.793 234.93 225.662 234.744 225.555L196.644 247.54C196.412 247.679 196.213 247.865 196.06 248.087C195.906 248.309 195.802 248.561 195.754 248.826L191.42 274.7Z" fill="#E5E5E5"></path><path opacity="0.4" d="M382.773 473C403.581 473 420.448 463.263 420.448 451.251C420.448 439.24 403.581 429.503 382.773 429.503C361.966 429.503 345.099 439.24 345.099 451.251C345.099 463.263 361.966 473 382.773 473Z" fill="#D6D8E5"></path><path d="M413.312 285.966C413.738 289.75 418.224 305.917 417.259 311.461C416.294 317.005 400.991 326.294 400.991 326.294L398.871 316.834L407.388 308.528L405.041 292.759L413.312 285.966Z" fill="#FFCEA9"></path><path d="M401.474 270.007C402.962 269.316 404.652 269.196 406.223 269.67C407.794 270.145 409.135 271.181 409.991 272.58C412.243 276.308 414.581 289.097 414.798 291.283C414.798 291.283 411.637 295.644 406.896 294.915L401.474 270.007Z" fill="#EDEDED"></path><path d="M383.985 450.599C380.653 451.522 377.091 451.09 374.076 449.397C371.692 449.473 358.736 443.929 356.976 448.584C355.433 452.661 361.045 456.436 364.045 457.164C370.584 458.744 375.401 462.007 378.051 462.556C380.01 462.972 382.546 463.247 384.108 461.705C385.982 459.86 385.821 453.03 383.985 450.599Z" fill="#38226D"></path><path d="M378.051 461.43C375.43 460.882 370.584 457.646 364.045 456.029C361.528 455.423 357.203 452.67 356.768 449.407C356.181 453.191 361.244 456.492 364.045 457.173C370.584 458.753 375.401 462.017 378.051 462.565C380.01 462.982 382.546 463.256 384.108 461.714C384.51 461.266 384.805 460.732 384.969 460.153C383.995 460.89 382.863 461.39 381.662 461.611C380.46 461.833 379.224 461.771 378.051 461.43Z" fill="#9C73FF"></path><path d="M405.041 441.167C401.71 442.088 398.15 441.66 395.133 439.975C392.748 440.041 379.792 434.498 378.032 439.152C376.49 443.229 382.102 447.004 385.102 447.732C391.641 449.312 396.458 452.576 399.108 453.134C401.076 453.541 403.603 453.815 405.164 452.273C406.991 450.428 406.83 443.598 405.041 441.167Z" fill="#38226D"></path><path d="M399.06 451.999C396.439 451.45 391.594 448.215 385.054 446.597C382.537 445.992 378.212 443.248 377.777 439.975C377.19 443.759 382.253 447.051 385.054 447.732C391.594 449.312 396.411 452.576 399.06 453.134C401.029 453.541 403.556 453.815 405.117 452.273C405.519 451.825 405.814 451.291 405.978 450.712C405.005 451.451 403.873 451.952 402.672 452.175C401.471 452.399 400.234 452.338 399.06 451.999Z" fill="#9C73FF"></path><path d="M405.25 405.985C404.696 401.173 403.695 396.422 402.259 391.795C402.259 391.795 403.158 379.554 403.603 367.947C404.114 354.778 408.675 343.19 405.07 332.68L364.424 341.714C364.424 341.714 366.884 394.217 367.433 400.574C367.731 405.514 368.338 410.43 369.25 415.294C371.143 425.482 374.124 449.728 374.124 449.728C378.42 452.226 384.061 450.845 384.061 450.845C384.061 450.845 383.758 420.185 383.474 412.844C383.143 403.876 382.868 404.557 382.868 404.557L384.221 382.25L385.102 371.144C385.102 371.144 386.228 379.299 386.994 386.583C387.628 392.93 389.161 398.673 390.874 410.498C392.36 420.752 394.773 441.356 394.773 441.356C399.07 443.863 404.909 441.782 404.909 441.782C404.909 441.782 406.414 414.878 405.25 405.985Z" fill="#174399"></path><path d="M399.363 270.225C396.269 270.376 393.969 271.171 393.581 270.225C393.246 268.63 393.009 267.015 392.871 265.391C393.231 264.492 393.534 263.499 393.534 263.499C397.423 261.105 398.653 256.877 399.164 252.014C400.035 243.652 395.511 236.339 387.155 235.459C379.291 234.646 373.509 240.189 371.966 247.757C371.133 251.541 369.477 258.58 371.72 264.785C372.969 268.229 374.559 270.963 376.187 271.493C377.746 271.453 379.301 271.317 380.843 271.086C380.843 271.086 381.259 273.413 381.553 274.87C381.846 276.327 381.723 277.15 378.761 278.975C375.799 280.801 383.247 284.566 388.12 284.188C392.994 283.809 398.417 280.962 399.912 277.774C401.587 274.264 401.445 270.121 399.363 270.225Z" fill="#FFCEA9"></path><path d="M394.84 270.688C395.691 272.817 393.515 275.418 387.704 277.263C381.893 279.108 381.363 276.743 381.363 276.743C381.363 276.743 372.846 280.621 370.064 282.561C366.581 285.001 365.029 292.021 364.556 303.969C364.017 317.752 363.969 338.195 364.424 341.723C364.424 341.723 370.944 348.222 379.291 347.541C387.638 346.86 401.682 339.472 405.089 333.768C404.994 321.687 403.574 319.719 405.533 312.757C410.019 296.817 412.376 290.289 410.199 279.694C408.401 270.963 405.884 269.884 402.439 269.969C399.895 270.074 397.358 270.314 394.84 270.688Z" fill="#F4F4F4"></path><path d="M351.44 315.358C358.291 317.09 359.9 312.766 360.799 309.2C362.976 300.544 364.149 292.73 365.777 287.811C367.67 282.021 369.695 281.104 372.506 279.969C375.818 278.644 378.657 281.435 377.559 288.814C376.253 297.536 374.55 303.656 371.285 313.977C370.433 316.673 368.521 321.46 365.663 323.778C362.124 326.616 356.805 326.512 348.752 324.506C345.317 323.655 341.55 321.602 335.058 318.575C333.317 317.761 331.954 317.222 328.613 315.661C325.273 314.1 321.781 311.499 320.03 308.964C318.279 306.428 318.043 305.18 318.402 304.65C318.847 303.921 319.642 304.082 320.579 305.151C321.93 306.959 323.601 308.505 325.509 309.711C325.509 309.711 323.342 307.478 322.169 306.031C321.119 304.74 320.247 303.315 319.576 301.793C318.961 300.317 320.238 298.312 321.203 299.362C322.169 300.412 322.642 301.49 324.412 303.609C325.341 304.744 326.406 305.76 327.582 306.636C326.483 305.14 325.505 303.558 324.658 301.906C323.9 300.623 323.529 299.148 323.588 297.659C323.636 296.883 324.733 295.965 325.755 297.432C326.702 298.747 327.288 300.809 329.437 303.051C330.998 304.669 332.333 305.605 332.37 305.151C332.408 304.697 331.424 303.817 330.866 301.925C330.307 300.033 330.866 298.037 331.916 297.82C332.967 297.602 332.758 297.659 333.591 299.428C334.424 301.197 335.721 302.502 336.705 305.104C337.242 306.926 338.216 308.589 339.544 309.947C341.209 311.745 344.929 313.722 351.44 315.358Z" fill="#FFCEA9"></path><path d="M375.042 278.786C370.471 278.115 367.244 280.167 365.219 287.102C363.193 294.036 361.793 299.712 361.793 299.712C363.6 302.323 366.34 304.141 369.449 304.792C374.919 306.116 376.887 303.505 376.887 303.505C376.887 303.505 378.411 296.249 379.357 291.311C380.303 286.373 380.701 279.619 375.042 278.786Z" fill="#EDEDED"></path><path d="M372.184 246.707C372.184 246.707 364.954 235.734 380.616 233.463C391.906 231.855 399.164 239.139 399.997 246.972C400.802 254.493 396.164 262.297 392.824 265.4C391.196 265.977 387.676 266.346 383.067 264.218C382.88 262.171 382.807 260.115 382.849 258.059C382.849 258.059 388.357 246.509 372.184 246.707Z" fill="#3A2C6D"></path><path d="M226.028 208.602C235.217 208.602 242.665 201.157 242.665 191.972C242.665 182.787 235.217 175.341 226.028 175.341C216.84 175.341 209.391 182.787 209.391 191.972C209.391 201.157 216.84 208.602 226.028 208.602Z" fill="#174399"></path><path d="M226.028 199.843C219.716 199.843 213.603 198.405 209.259 195.888C205.634 193.798 203.581 191.158 203.581 188.661C203.581 186.163 205.663 183.524 209.259 181.433C213.603 178.917 219.669 177.479 226.028 177.479C232.388 177.479 238.444 178.926 242.798 181.433C246.422 183.524 248.476 186.163 248.476 188.661C248.476 191.158 246.403 193.798 242.798 195.888C238.482 198.405 232.331 199.843 226.028 199.843Z" fill="#B7C0EE"></path><path d="M226.028 196.976C219.716 196.976 213.603 195.538 209.259 193.031C205.634 190.941 203.581 188.301 203.581 185.804C203.581 183.306 205.663 180.667 209.259 178.567C213.603 176.06 219.669 174.622 226.028 174.622C232.388 174.622 238.444 176.06 242.798 178.567C246.422 180.667 248.476 183.297 248.476 185.804C248.476 188.311 246.403 190.941 242.798 193.031C238.482 195.538 232.331 196.976 226.028 196.976Z" fill="#174399"></path><path d="M226.028 194.394C217.852 194.394 209.94 192.502 204.262 189.276C199.53 186.561 196.871 183.146 196.871 179.901C196.871 176.656 199.559 173.279 204.262 170.535C209.893 167.281 217.814 165.418 226.028 165.418C234.243 165.418 242.116 167.31 247.794 170.535C252.526 173.241 255.195 176.656 255.195 179.901C255.195 183.146 252.498 186.523 247.794 189.276C242.126 192.53 234.205 194.394 226.028 194.394Z" fill="#B7C0EE"></path><path d="M226.028 190.685C217.852 190.685 209.94 188.793 204.262 185.567C199.53 182.862 196.871 179.437 196.871 176.202C196.871 172.967 199.559 169.58 204.262 166.827C209.893 163.573 217.814 161.709 226.028 161.709C234.243 161.709 242.116 163.601 247.794 166.827C252.526 169.542 255.195 172.957 255.195 176.202C255.195 179.447 252.498 182.824 247.794 185.567C242.126 188.822 234.205 190.685 226.028 190.685Z" fill="#174399"></path><path d="M226.028 187.232C216.054 187.232 206.401 184.962 199.53 180.998C193.805 177.687 190.521 173.525 190.521 169.571C190.521 165.616 193.805 161.454 199.53 158.152C206.401 154.189 216.054 151.909 226.028 151.909C236.003 151.909 245.646 154.189 252.526 158.152C258.252 161.454 261.536 165.616 261.536 169.571C261.536 173.525 258.252 177.687 252.526 180.998C245.656 184.962 235.993 187.232 226.028 187.232Z" fill="#B7C0EE"></path><path d="M226.028 182.71C216.054 182.71 206.401 180.44 199.53 176.476C193.805 173.175 190.521 169.003 190.521 165.049C190.521 161.094 193.805 156.932 199.53 153.63C206.401 149.667 216.054 147.396 226.028 147.396C236.003 147.396 245.646 149.667 252.526 153.63C258.252 156.932 261.536 161.104 261.536 165.058C261.536 169.012 258.252 173.175 252.526 176.476C245.656 180.44 235.993 182.71 226.028 182.71Z" fill="#174399"></path><path d="M226.028 178.047C214.577 178.047 203.495 175.445 195.603 170.885C189.026 167.101 185.259 162.315 185.259 157.774C185.259 153.233 189.045 148.456 195.603 144.653C203.486 140.103 214.577 137.501 226.019 137.501C237.46 137.501 248.561 140.103 256.444 144.662C263.021 148.446 266.788 153.233 266.788 157.774C266.788 162.315 263.002 167.092 256.444 170.885C248.561 175.445 237.47 178.047 226.028 178.047Z" fill="#B7C0EE"></path><path d="M226.028 172.863C214.577 172.863 203.495 170.252 195.603 165.701C189.026 161.917 185.259 157.131 185.259 152.59C185.259 148.049 189.045 143.262 195.603 139.469C203.486 134.918 214.577 132.307 226.019 132.307C237.46 132.307 248.561 134.918 256.444 139.469C263.021 143.253 266.788 148.049 266.788 152.59C266.788 157.131 263.002 161.908 256.444 165.701C248.561 170.28 237.47 172.863 226.028 172.863Z" fill="#174399"></path><path d="M226.028 169.003C251.346 169.003 271.87 157.157 271.87 142.543C271.87 127.93 251.346 116.084 226.028 116.084C200.711 116.084 180.187 127.93 180.187 142.543C180.187 157.157 200.711 169.003 226.028 169.003Z" fill="#FFDF57"></path><path d="M214.331 77.345H210.271V140.434H214.331V77.345Z" fill="#D8AA44"></path><path d="M242.126 77.345H238.066V140.434H242.126V77.345Z" fill="#D8AA44"></path><path d="M225.915 81.4505L219.962 76.0016L212.656 80.8924L210.271 77.3544L220.36 70.7324L226.142 76.0205L233.069 70.6472L242.126 77.3544L239.296 80.5991L233.06 75.9164L225.915 81.4505Z" fill="#D8AA44"></path><path opacity="0.69" d="M271.804 143.924C271.879 137.984 272.901 120.445 286.86 96.2744C303.374 67.6768 286.16 0 225.905 0C165.651 0 148.436 67.6768 164.95 96.2744C177.016 117.172 179.647 135.713 180.196 144.189" fill="#FFDF57"></path><path opacity="0.2" d="M194.126 316.097L191.496 313.637C191.162 313.153 190.76 312.72 190.303 312.35C190.104 312.183 189.892 312.031 189.669 311.896L186.262 309.626L182.543 307.98C182.315 307.875 182.081 307.783 181.843 307.705C181.295 307.523 180.725 307.415 180.149 307.384L176.609 306.23C176.411 306.23 176.524 306.589 176.609 306.741L176.95 306.882C177.376 307.043 177.016 306.987 177.461 307.299L179.496 307.819C180.792 307.77 182.074 308.099 183.187 308.765L185.884 310.118L188.477 311.679C189.616 312.305 190.525 313.28 191.07 314.46L192.442 315.567C192.868 315.964 192.622 315.794 193.256 315.888L193.606 316.191C193.861 316.257 194.24 316.267 194.126 316.097Z" fill="black"></path><path opacity="0.1" d="M186.726 310.894C186.936 310.57 187.218 310.298 187.549 310.099C188.031 309.803 188.596 309.674 189.158 309.73C189.822 309.798 190.465 309.997 191.051 310.316H191.117L192.063 310.827C192.309 310.96 192.537 311.111 192.764 311.262L193.199 311.584C193.852 312.104 193.663 313.126 193.085 313.94C192.766 314.394 192.397 314.813 191.988 315.188C191.627 315.501 191.194 315.718 190.727 315.819C190.261 315.92 189.776 315.901 189.319 315.765C188.895 315.632 188.485 315.455 188.098 315.236C187.74 315.027 187.401 314.786 187.086 314.517C186.697 314.154 186.429 313.682 186.318 313.162C186.206 312.643 186.256 312.102 186.461 311.612C186.523 311.364 186.612 311.123 186.726 310.894ZM178.918 306.164C179.43 305.378 180.3 304.782 181.038 305.028L181.512 305.208C181.751 305.302 181.985 305.409 182.212 305.53L183.073 305.974H183.13C183.671 306.26 184.14 306.664 184.502 307.157C184.65 307.357 184.758 307.585 184.818 307.827C184.878 308.069 184.89 308.32 184.852 308.566C184.796 308.932 184.653 309.279 184.436 309.579C184.259 309.792 184.059 309.986 183.84 310.156C183.443 310.542 182.952 310.818 182.416 310.955C181.88 311.093 181.317 311.088 180.783 310.941C180.402 310.82 180.034 310.662 179.685 310.468C179.347 310.259 179.03 310.019 178.739 309.749C178.436 309.467 178.226 309.1 178.137 308.696C178.047 308.293 178.082 307.871 178.237 307.488C178.414 307.025 178.643 306.584 178.918 306.173V306.164Z" fill="black"></path><path d="M177.915 307.318L179.941 307.128C181.223 307.001 182.514 307.258 183.65 307.866L194.827 313.476L195.48 312.53L182.969 307.015C182.217 306.663 181.404 306.461 180.575 306.419L176.6 306.192C176.556 306.184 176.511 306.19 176.471 306.208C176.431 306.227 176.397 306.257 176.375 306.295C176.352 306.333 176.342 306.377 176.345 306.421C176.348 306.465 176.364 306.507 176.392 306.542L176.496 306.684C176.66 306.901 176.876 307.073 177.124 307.183C177.372 307.294 177.644 307.34 177.915 307.318Z" fill="#2B303F"></path><path d="M192.376 315.415L191.533 313.523C190.99 312.343 190.085 311.366 188.95 310.733L178.739 304.622L179.316 303.742L190.114 310.922C190.832 311.377 191.45 311.972 191.931 312.672L194.249 316.059C194.363 316.229 194.193 316.447 193.966 316.409H193.767C193.47 316.373 193.187 316.264 192.944 316.09C192.701 315.916 192.505 315.684 192.376 315.415Z" fill="#2B303F"></path><path opacity="0.3" d="M189.347 309.342C190.01 309.407 190.654 309.603 191.24 309.919H191.297L192.243 310.42C192.489 310.562 192.716 310.704 192.944 310.856C193.171 311.007 193.237 311.073 193.379 311.187C194.022 311.698 193.833 312.729 193.265 313.533C192.948 313.992 192.576 314.411 192.158 314.782C191.802 315.099 191.371 315.32 190.905 315.422C190.439 315.525 189.955 315.506 189.499 315.368C189.076 315.227 188.667 315.047 188.278 314.829C187.916 314.626 187.576 314.385 187.265 314.11C186.876 313.75 186.607 313.279 186.495 312.761C186.383 312.243 186.434 311.703 186.641 311.215C186.711 310.95 186.816 310.696 186.953 310.458C187.166 310.137 187.447 309.865 187.776 309.664C188.252 309.39 188.803 309.277 189.347 309.342Z" fill="url(#paint0_linear)"></path><path d="M179.013 303.543L178.521 304.319C178.48 304.364 178.457 304.423 178.457 304.484C178.457 304.546 178.48 304.605 178.521 304.65C178.605 304.725 178.662 304.827 178.683 304.938C178.703 305.049 178.686 305.164 178.635 305.265L177.821 306.968C177.583 307.45 177.508 307.997 177.607 308.525C177.706 309.054 177.973 309.536 178.37 309.9C179.058 310.513 179.872 310.969 180.754 311.234C181.412 311.435 182.112 311.453 182.778 311.286C183.445 311.119 184.054 310.774 184.54 310.288L185.297 309.522C185.464 309.359 185.565 309.14 185.581 308.907C185.596 308.804 185.635 308.705 185.695 308.62C185.755 308.534 185.834 308.464 185.926 308.415C186.019 308.367 186.121 308.34 186.226 308.338C186.33 308.337 186.433 308.36 186.527 308.405L186.716 308.5L186.906 308.614C186.983 308.669 187.044 308.743 187.084 308.829C187.125 308.915 187.142 309.01 187.136 309.105C187.129 309.2 187.098 309.291 187.047 309.371C186.995 309.45 186.923 309.515 186.839 309.56C186.627 309.672 186.457 309.852 186.357 310.07L185.931 311.016C185.663 311.618 185.596 312.29 185.741 312.933C185.886 313.576 186.235 314.155 186.735 314.583C187.458 315.22 188.306 315.7 189.224 315.992C189.813 316.182 190.443 316.204 191.043 316.055C191.643 315.906 192.19 315.593 192.622 315.15L194.041 313.656C194.136 313.561 194.255 313.493 194.384 313.46C194.514 313.427 194.651 313.429 194.779 313.467C194.848 313.49 194.922 313.492 194.991 313.471C195.061 313.451 195.122 313.41 195.167 313.353L195.745 312.558C195.805 312.487 195.838 312.396 195.838 312.303C195.838 312.21 195.805 312.119 195.745 312.048C194.841 311.15 193.8 310.402 192.66 309.834L191.713 309.323C191.013 308.942 190.244 308.704 189.451 308.623L188.751 308.547C188.595 308.555 188.442 308.5 188.325 308.396C188.256 308.298 188.165 308.217 188.06 308.16L187.284 307.743L186.508 307.318C186.396 307.261 186.274 307.229 186.149 307.223C186.059 307.22 185.97 307.198 185.89 307.157C185.81 307.116 185.74 307.058 185.685 306.986L185.306 306.476C184.869 305.89 184.302 305.415 183.65 305.085L182.789 304.631C181.771 304.027 180.657 303.602 179.496 303.373C179.407 303.354 179.316 303.36 179.231 303.39C179.145 303.42 179.07 303.473 179.013 303.543ZM186.915 310.515C187.128 310.193 187.409 309.922 187.739 309.72C188.22 309.426 188.786 309.299 189.347 309.361C190.01 309.426 190.654 309.622 191.24 309.938H191.297L192.243 310.439C192.489 310.581 192.716 310.723 192.944 310.875C193.171 311.026 193.237 311.092 193.379 311.206C194.022 311.716 193.833 312.748 193.265 313.552C192.948 314.011 192.576 314.43 192.158 314.8C191.802 315.118 191.371 315.338 190.905 315.441C190.439 315.544 189.955 315.525 189.499 315.387C189.076 315.246 188.667 315.066 188.278 314.848C187.916 314.645 187.576 314.404 187.265 314.129C186.876 313.769 186.607 313.298 186.495 312.78C186.383 312.262 186.434 311.722 186.641 311.234C186.702 310.984 186.794 310.742 186.915 310.515ZM179.098 305.785C179.619 305.009 180.48 304.413 181.228 304.659C181.388 304.708 181.546 304.764 181.701 304.83C181.937 304.924 182.174 305.038 182.401 305.151L183.262 305.605H183.319C183.856 305.896 184.324 306.3 184.691 306.788C184.839 306.99 184.945 307.22 185.004 307.463C185.062 307.707 185.072 307.959 185.032 308.207C184.978 308.57 184.835 308.915 184.616 309.21C184.441 309.428 184.241 309.625 184.019 309.796C183.622 310.182 183.131 310.457 182.595 310.595C182.059 310.732 181.496 310.728 180.963 310.581C180.584 310.46 180.219 310.298 179.874 310.099C179.533 309.898 179.216 309.66 178.928 309.389C178.626 309.105 178.416 308.737 178.327 308.332C178.237 307.926 178.272 307.504 178.426 307.119C178.605 306.656 178.83 306.212 179.098 305.795V305.785Z" fill="#2B303F"></path><path d="M183.944 309.947C183.548 310.335 183.057 310.612 182.521 310.75C181.984 310.888 181.421 310.882 180.887 310.733C180.513 310.622 180.151 310.473 179.808 310.288C179.465 310.09 179.147 309.852 178.862 309.578C178.559 309.297 178.349 308.93 178.26 308.526C178.17 308.122 178.205 307.701 178.36 307.318C178.546 306.839 178.784 306.382 179.07 305.955C178.808 306.354 178.589 306.779 178.417 307.223C178.262 307.608 178.228 308.03 178.317 308.436C178.407 308.841 178.616 309.209 178.918 309.493C179.207 309.764 179.524 310.002 179.865 310.203C180.209 310.402 180.574 310.564 180.953 310.685C181.487 310.832 182.05 310.836 182.586 310.699C183.122 310.561 183.613 310.286 184.01 309.9C184.229 309.73 184.429 309.537 184.606 309.323L184.54 309.342C184.367 309.568 184.167 309.771 183.944 309.947Z" fill="#1F232D"></path><path d="M192.035 314.961C191.678 315.277 191.246 315.496 190.781 315.597C190.315 315.698 189.831 315.678 189.376 315.538C188.951 315.405 188.542 315.227 188.155 315.009C187.797 314.799 187.458 314.559 187.142 314.29C186.754 313.927 186.486 313.454 186.375 312.935C186.263 312.416 186.313 311.875 186.518 311.385C186.593 311.125 186.697 310.874 186.83 310.638L186.906 310.534C186.776 310.767 186.674 311.015 186.603 311.272C186.396 311.76 186.345 312.3 186.457 312.818C186.569 313.336 186.838 313.807 187.227 314.167C187.538 314.442 187.878 314.683 188.24 314.886C188.629 315.104 189.038 315.284 189.461 315.425C189.917 315.563 190.402 315.582 190.867 315.479C191.333 315.376 191.764 315.156 192.12 314.838C192.504 314.495 192.85 314.111 193.152 313.694C192.832 314.16 192.457 314.586 192.035 314.961Z" fill="#1F232D"></path><path opacity="0.3" d="M184.691 306.826C184.324 306.337 183.856 305.934 183.319 305.643H183.262L182.401 305.189C182.174 305.076 181.937 304.962 181.701 304.867C181.546 304.802 181.388 304.745 181.228 304.697C180.48 304.451 179.619 305.047 179.098 305.823C178.815 306.251 178.577 306.707 178.389 307.185C178.234 307.57 178.199 307.993 178.289 308.398C178.378 308.803 178.588 309.171 178.89 309.456C179.178 309.726 179.496 309.964 179.836 310.165C180.181 310.364 180.546 310.526 180.925 310.648C181.459 310.794 182.021 310.798 182.557 310.661C183.094 310.523 183.584 310.248 183.982 309.862C184.203 309.692 184.403 309.495 184.578 309.276C184.797 308.981 184.94 308.636 184.994 308.273C185.043 308.024 185.042 307.767 184.99 307.519C184.938 307.27 184.836 307.034 184.691 306.826Z" fill="url(#paint1_linear)"></path><defs><linearGradient id="paint0_linear" x1="190.086" y1="309.342" x2="190.086" y2="315.548" gradientUnits="userSpaceOnUse"><stop offset="0.01" stop-color="white"></stop><stop offset="0.88" stop-color="white" stop-opacity="0"></stop></linearGradient><linearGradient id="paint1_linear" x1="1481.57" y1="2275.21" x2="1481.57" y2="2314.93" gradientUnits="userSpaceOnUse"><stop offset="0.01" stop-color="white"></stop><stop offset="0.88" stop-color="white" stop-opacity="0"></stop></linearGradient></defs></svg>