<svg width="253" height="57" viewBox="0 0 253 57" fill="none" xmlns="http://www.w3.org/2000/svg">
<path d="M25.3616 27.7916C25.3616 21.1845 25.3782 14.5788 25.3404 7.97169C25.3359 7.14542 25.5837 6.94948 26.3392 7.01023C27.1401 7.07403 27.9501 7.02087 28.7555 7.02542C30.6655 7.03606 31.7399 8.10383 31.7415 10.0434C31.7445 16.7767 31.7399 23.5099 31.7279 30.2431C31.7203 34.1162 31.7037 37.9894 31.6629 41.861C31.6568 42.4579 31.7354 42.6478 32.3927 42.4534C38.4901 40.6505 42.6668 36.9489 44.0419 30.521C45.278 24.7402 42.8451 19.058 37.8735 15.9185C37.4051 15.6223 36.9155 15.3443 36.503 14.9813C35.6643 14.2447 35.2578 13.2878 35.2638 12.1593C35.2699 11.1978 35.285 10.2348 35.2548 9.27337C35.2397 8.77214 35.3651 8.6886 35.8547 8.8253C43.315 10.9107 48.1128 15.7028 49.9609 23.241C51.7637 30.5985 49.9352 37.1889 44.7808 42.6448C41.4579 46.1625 37.1618 48.1234 32.3519 48.8023C30.2485 49.0985 28.145 49.0651 26.0355 48.7112C25.3978 48.6049 25.354 48.3467 25.3555 47.8363C25.3646 41.1563 25.3616 34.4732 25.3616 27.7916Z" fill="#026080"/>
<path d="M19.0173 28.6513C19.0173 29.5125 18.9856 30.3737 19.0294 31.2319C19.0581 31.806 18.9191 32.0217 18.2935 32.0035C16.6585 31.9564 15.0204 32.005 13.3839 31.9776C12.8716 31.9685 12.6782 32.0475 12.7855 32.6384C13.5078 36.6604 15.6475 39.5204 19.4736 41.0363C21.5 41.8398 22.1543 42.8149 22.1604 45.0112C22.1634 46.0243 22.1166 47.0389 22.1755 48.0474C22.2148 48.7294 22.032 48.9208 21.3459 48.8054C18.0336 48.2494 15.0053 47.0374 12.382 44.9094C7.43766 40.8965 5.16949 35.6154 5.00931 29.2923C4.89598 24.8495 5.80868 20.703 8.21135 16.9483C10.8754 12.785 14.623 10.0389 19.3135 8.57469C19.8877 8.39546 20.4725 8.23749 21.0603 8.11142C21.7494 7.96409 22.1241 8.20712 22.1362 8.88758C22.1619 10.3032 22.1997 11.7264 22.0879 13.1359C21.9881 14.4042 21.1752 15.2441 20.0192 15.7104C18.4567 16.3407 17.0695 17.2202 15.9014 18.4489C14.2936 20.1395 13.2675 22.1155 12.8565 24.4273C12.7477 25.0363 12.8656 25.2201 13.4957 25.2034C14.9796 25.1624 16.4665 25.1837 17.952 25.1928C19.1775 25.2004 19.0022 25.0348 19.0143 26.2985C19.0233 27.0823 19.0173 27.866 19.0173 28.6513ZM20.7928 47.3123C20.7928 46.5711 20.7928 45.8937 20.7928 45.2162C20.7913 43.3693 20.468 42.8939 18.7574 42.2225C14.357 40.4971 11.3469 36.0467 11.3363 31.3078C11.3348 30.7549 11.5146 30.638 12.0224 30.6471C13.6589 30.676 15.2954 30.638 16.932 30.6699C17.476 30.6805 17.6981 30.5545 17.6633 29.9621C17.6135 29.0796 17.6089 28.188 17.6648 27.3071C17.7056 26.6691 17.4503 26.5567 16.8866 26.5674C15.2259 26.5993 13.5637 26.5719 11.9015 26.5841C11.5131 26.5871 11.3137 26.534 11.3303 26.051C11.4557 22.6957 12.6374 19.8023 14.9962 17.4116C16.2897 16.1008 17.8129 15.1439 19.5205 14.468C20.3138 14.1535 20.7823 13.5733 20.7823 12.6757C20.7823 11.816 20.7732 10.9548 20.7974 10.0951C20.8095 9.66676 20.675 9.57563 20.2655 9.69258C15.0113 11.1948 10.9193 14.2735 8.52415 19.2008C5.32815 25.7745 5.41882 32.4758 8.96841 38.9083C11.5116 43.506 15.5931 46.1777 20.7928 47.3123Z" fill="#026080"/>
<path d="M75.696 22.516V25.636H68.52V29.716H74.016V32.716H68.52V36.88H75.696V40H64.44V22.516H75.696ZM81.8503 22.036V40H78.1303V22.036H81.8503ZM93.4461 40C93.0941 40 92.8261 39.952 92.6421 39.856C92.4661 39.76 92.3181 39.56 92.1981 39.256L91.9341 38.572C91.6221 38.836 91.3221 39.068 91.0341 39.268C90.7461 39.468 90.4461 39.64 90.1341 39.784C89.8301 39.92 89.5021 40.02 89.1501 40.084C88.8061 40.156 88.4221 40.192 87.9981 40.192C87.4301 40.192 86.9141 40.12 86.4501 39.976C85.9861 39.824 85.5901 39.604 85.2621 39.316C84.9421 39.028 84.6941 38.672 84.5181 38.248C84.3421 37.816 84.2541 37.32 84.2541 36.76C84.2541 36.32 84.3661 35.868 84.5901 35.404C84.8141 34.94 85.2021 34.52 85.7541 34.144C86.3061 33.76 87.0501 33.44 87.9861 33.184C88.9221 32.928 90.1021 32.784 91.5261 32.752V32.224C91.5261 31.496 91.3741 30.972 91.0701 30.652C90.7741 30.324 90.3501 30.16 89.7981 30.16C89.3581 30.16 88.9981 30.208 88.7181 30.304C88.4381 30.4 88.1861 30.508 87.9621 30.628C87.7461 30.748 87.5341 30.856 87.3261 30.952C87.1181 31.048 86.8701 31.096 86.5821 31.096C86.3261 31.096 86.1061 31.036 85.9221 30.916C85.7461 30.788 85.6061 30.632 85.5021 30.448L84.8301 29.284C85.5821 28.62 86.4141 28.128 87.3261 27.808C88.2461 27.48 89.2301 27.316 90.2781 27.316C91.0301 27.316 91.7061 27.44 92.3061 27.688C92.9141 27.928 93.4261 28.268 93.8421 28.708C94.2661 29.14 94.5901 29.656 94.8141 30.256C95.0381 30.856 95.1501 31.512 95.1501 32.224V40H93.4461ZM89.1741 37.732C89.6541 37.732 90.0741 37.648 90.4341 37.48C90.7941 37.312 91.1581 37.04 91.5261 36.664V34.936C90.7821 34.968 90.1701 35.032 89.6901 35.128C89.2101 35.224 88.8301 35.344 88.5501 35.488C88.2701 35.632 88.0741 35.796 87.9621 35.98C87.8581 36.164 87.8061 36.364 87.8061 36.58C87.8061 37.004 87.9221 37.304 88.1541 37.48C88.3861 37.648 88.7261 37.732 89.1741 37.732ZM97.7916 40V27.556H100.096C100.328 27.556 100.52 27.608 100.672 27.712C100.832 27.816 100.944 27.972 101.008 28.18L101.224 28.9C101.464 28.676 101.712 28.468 101.968 28.276C102.224 28.084 102.496 27.924 102.784 27.796C103.08 27.66 103.396 27.556 103.732 27.484C104.076 27.404 104.448 27.364 104.848 27.364C105.528 27.364 106.128 27.484 106.648 27.724C107.176 27.956 107.62 28.284 107.98 28.708C108.34 29.124 108.612 29.624 108.796 30.208C108.98 30.784 109.072 31.412 109.072 32.092V40H105.352V32.092C105.352 31.484 105.212 31.012 104.932 30.676C104.652 30.332 104.24 30.16 103.696 30.16C103.288 30.16 102.904 30.248 102.544 30.424C102.184 30.6 101.84 30.836 101.512 31.132V40H97.7916ZM120.689 30.508C120.577 30.644 120.469 30.752 120.365 30.832C120.261 30.912 120.113 30.952 119.921 30.952C119.737 30.952 119.569 30.908 119.417 30.82C119.273 30.732 119.109 30.636 118.925 30.532C118.741 30.42 118.525 30.32 118.277 30.232C118.029 30.144 117.721 30.1 117.353 30.1C116.897 30.1 116.501 30.184 116.165 30.352C115.837 30.52 115.565 30.76 115.349 31.072C115.133 31.384 114.973 31.768 114.869 32.224C114.765 32.672 114.713 33.18 114.713 33.748C114.713 34.94 114.941 35.856 115.397 36.496C115.861 37.136 116.497 37.456 117.305 37.456C117.737 37.456 118.077 37.404 118.325 37.3C118.581 37.188 118.797 37.068 118.973 36.94C119.149 36.804 119.309 36.68 119.453 36.568C119.605 36.456 119.793 36.4 120.017 36.4C120.313 36.4 120.537 36.508 120.689 36.724L121.769 38.056C121.385 38.496 120.981 38.856 120.557 39.136C120.133 39.408 119.697 39.624 119.249 39.784C118.809 39.936 118.365 40.04 117.917 40.096C117.469 40.16 117.033 40.192 116.609 40.192C115.849 40.192 115.121 40.048 114.425 39.76C113.737 39.472 113.129 39.056 112.601 38.512C112.081 37.96 111.665 37.284 111.353 36.484C111.049 35.684 110.897 34.772 110.897 33.748C110.897 32.852 111.029 32.016 111.293 31.24C111.565 30.456 111.961 29.78 112.481 29.212C113.009 28.636 113.657 28.184 114.425 27.856C115.201 27.528 116.097 27.364 117.113 27.364C118.089 27.364 118.945 27.52 119.681 27.832C120.417 28.144 121.081 28.6 121.673 29.2L120.689 30.508ZM128.713 27.364C129.537 27.364 130.289 27.492 130.969 27.748C131.657 28.004 132.245 28.376 132.733 28.864C133.229 29.352 133.613 29.952 133.885 30.664C134.165 31.368 134.305 32.168 134.305 33.064C134.305 33.344 134.293 33.572 134.269 33.748C134.245 33.924 134.201 34.064 134.137 34.168C134.073 34.272 133.985 34.344 133.873 34.384C133.769 34.424 133.633 34.444 133.465 34.444H126.289C126.409 35.484 126.725 36.24 127.237 36.712C127.749 37.176 128.409 37.408 129.217 37.408C129.649 37.408 130.021 37.356 130.333 37.252C130.645 37.148 130.921 37.032 131.161 36.904C131.409 36.776 131.633 36.66 131.833 36.556C132.041 36.452 132.257 36.4 132.481 36.4C132.777 36.4 133.001 36.508 133.153 36.724L134.233 38.056C133.849 38.496 133.433 38.856 132.985 39.136C132.545 39.408 132.089 39.624 131.617 39.784C131.153 39.936 130.685 40.04 130.213 40.096C129.749 40.16 129.305 40.192 128.881 40.192C128.009 40.192 127.189 40.052 126.421 39.772C125.661 39.484 124.993 39.06 124.417 38.5C123.849 37.94 123.397 37.244 123.061 36.412C122.733 35.58 122.569 34.612 122.569 33.508C122.569 32.676 122.709 31.888 122.989 31.144C123.277 30.4 123.685 29.748 124.213 29.188C124.749 28.628 125.393 28.184 126.145 27.856C126.905 27.528 127.761 27.364 128.713 27.364ZM128.785 29.932C128.073 29.932 127.517 30.136 127.117 30.544C126.717 30.944 126.453 31.524 126.325 32.284H130.969C130.969 31.988 130.929 31.7 130.849 31.42C130.777 31.14 130.653 30.892 130.477 30.676C130.309 30.452 130.085 30.272 129.805 30.136C129.525 30 129.185 29.932 128.785 29.932ZM152.304 31.252C152.304 32.516 152.084 33.684 151.644 34.756C151.212 35.82 150.6 36.744 149.808 37.528C149.016 38.304 148.06 38.912 146.94 39.352C145.828 39.784 144.592 40 143.232 40H136.44V22.516H143.232C144.592 22.516 145.828 22.736 146.94 23.176C148.06 23.616 149.016 24.224 149.808 25C150.6 25.776 151.212 26.7 151.644 27.772C152.084 28.836 152.304 29.996 152.304 31.252ZM148.152 31.252C148.152 30.388 148.04 29.608 147.816 28.912C147.592 28.216 147.268 27.628 146.844 27.148C146.428 26.66 145.916 26.288 145.308 26.032C144.7 25.768 144.008 25.636 143.232 25.636H140.52V36.88H143.232C144.008 36.88 144.7 36.752 145.308 36.496C145.916 36.232 146.428 35.86 146.844 35.38C147.268 34.892 147.592 34.3 147.816 33.604C148.04 32.908 148.152 32.124 148.152 31.252ZM158.093 27.556V40H154.373V27.556H158.093ZM158.525 24.148C158.525 24.444 158.465 24.724 158.345 24.988C158.225 25.244 158.061 25.472 157.853 25.672C157.645 25.864 157.401 26.02 157.121 26.14C156.849 26.252 156.557 26.308 156.245 26.308C155.941 26.308 155.657 26.252 155.393 26.14C155.129 26.02 154.893 25.864 154.685 25.672C154.485 25.472 154.325 25.244 154.205 24.988C154.093 24.724 154.037 24.444 154.037 24.148C154.037 23.844 154.093 23.56 154.205 23.296C154.325 23.032 154.485 22.8 154.685 22.6C154.893 22.4 155.129 22.244 155.393 22.132C155.657 22.02 155.941 21.964 156.245 21.964C156.557 21.964 156.849 22.02 157.121 22.132C157.401 22.244 157.645 22.4 157.853 22.6C158.061 22.8 158.225 23.032 158.345 23.296C158.465 23.56 158.525 23.844 158.525 24.148ZM165.488 27.34C166.016 27.34 166.512 27.392 166.976 27.496C167.448 27.6 167.884 27.748 168.284 27.94H172.04V29.296C172.04 29.504 171.98 29.668 171.86 29.788C171.748 29.908 171.552 30 171.272 30.064L170.36 30.268C170.472 30.628 170.528 31 170.528 31.384C170.528 32.008 170.396 32.568 170.132 33.064C169.876 33.56 169.52 33.984 169.064 34.336C168.616 34.68 168.084 34.948 167.468 35.14C166.852 35.324 166.192 35.416 165.488 35.416C165.096 35.416 164.728 35.392 164.384 35.344C164.112 35.504 163.976 35.688 163.976 35.896C163.976 36.104 164.084 36.256 164.3 36.352C164.524 36.44 164.816 36.504 165.176 36.544C165.536 36.576 165.948 36.6 166.412 36.616C166.876 36.624 167.348 36.652 167.828 36.7C168.308 36.74 168.78 36.812 169.244 36.916C169.708 37.02 170.12 37.188 170.48 37.42C170.84 37.652 171.128 37.964 171.344 38.356C171.568 38.74 171.68 39.232 171.68 39.832C171.68 40.392 171.544 40.94 171.272 41.476C171 42.012 170.6 42.488 170.072 42.904C169.544 43.32 168.896 43.652 168.128 43.9C167.36 44.156 166.48 44.284 165.488 44.284C164.512 44.284 163.668 44.192 162.956 44.008C162.252 43.824 161.664 43.58 161.192 43.276C160.728 42.98 160.384 42.636 160.16 42.244C159.936 41.852 159.824 41.444 159.824 41.02C159.824 40.468 159.992 40.004 160.328 39.628C160.664 39.244 161.124 38.944 161.708 38.728C161.428 38.544 161.204 38.308 161.036 38.02C160.868 37.732 160.784 37.368 160.784 36.928C160.784 36.744 160.816 36.552 160.88 36.352C160.944 36.144 161.044 35.944 161.18 35.752C161.316 35.56 161.488 35.376 161.696 35.2C161.904 35.024 162.152 34.868 162.44 34.732C161.792 34.388 161.28 33.932 160.904 33.364C160.536 32.796 160.352 32.136 160.352 31.384C160.352 30.76 160.484 30.2 160.748 29.704C161.012 29.2 161.372 28.776 161.828 28.432C162.292 28.08 162.836 27.812 163.46 27.628C164.084 27.436 164.76 27.34 165.488 27.34ZM168.248 40.456C168.248 40.256 168.184 40.096 168.056 39.976C167.936 39.856 167.768 39.76 167.552 39.688C167.344 39.616 167.096 39.564 166.808 39.532C166.528 39.5 166.224 39.476 165.896 39.46C165.568 39.444 165.228 39.432 164.876 39.424C164.524 39.408 164.176 39.38 163.832 39.34C163.6 39.5 163.408 39.68 163.256 39.88C163.112 40.072 163.04 40.292 163.04 40.54C163.04 40.716 163.076 40.876 163.148 41.02C163.228 41.164 163.364 41.288 163.556 41.392C163.748 41.496 164.004 41.576 164.324 41.632C164.652 41.696 165.064 41.728 165.56 41.728C166.096 41.728 166.536 41.696 166.88 41.632C167.224 41.568 167.496 41.48 167.696 41.368C167.904 41.256 168.048 41.12 168.128 40.96C168.208 40.808 168.248 40.64 168.248 40.456ZM165.488 33.124C166.104 33.124 166.548 32.972 166.82 32.668C167.1 32.356 167.24 31.956 167.24 31.468C167.24 30.964 167.1 30.568 166.82 30.28C166.548 29.992 166.104 29.848 165.488 29.848C164.872 29.848 164.424 29.992 164.144 30.28C163.872 30.568 163.736 30.964 163.736 31.468C163.736 31.708 163.768 31.928 163.832 32.128C163.904 32.328 164.012 32.504 164.156 32.656C164.3 32.8 164.48 32.916 164.696 33.004C164.92 33.084 165.184 33.124 165.488 33.124Z" fill="#026080"/>
</svg>
