<svg xmlns="http://www.w3.org/2000/svg" width="125" height="125" viewBox="0 0 125 125" fill="none"><rect width="125" height="125" rx="10" fill="#E9D5A3" fill-opacity="0.3"></rect><path d="M88.8641 47.6451H62.0254V34.0968C62.0254 24.7585 69.5503 17.1613 78.7996 17.1613V13.7742C67.7001 13.7742 58.6706 22.8905 58.6706 34.0968V47.6451H25.1222C21.4218 47.6451 18.4125 50.6834 18.4125 54.4193V95.0645C18.4125 98.8005 21.4218 101.839 25.1222 101.839H43.5738V108.613H40.219V112H73.7673V108.613H70.4125V101.839H88.8641C92.5645 101.839 95.5738 98.8005 95.5738 95.0645V54.4193C95.5738 50.6834 92.5645 47.6451 88.8641 47.6451ZM67.0577 108.613H46.9286V101.839H67.0577V108.613ZM92.219 95.0645C92.219 96.9325 90.7143 98.4516 88.8641 98.4516H25.1222C23.272 98.4516 21.7674 96.9325 21.7674 95.0645V91.6774H92.219V95.0645ZM92.219 88.2903H21.7674V54.4193C21.7674 52.5513 23.272 51.0322 25.1222 51.0322H58.6706V54.4193C58.6706 60.3332 55.6479 65.5409 51.0853 68.5706C49.3307 64.2487 45.1237 61.1935 40.219 61.1935C33.7441 61.1935 28.477 66.513 28.477 73.0484C28.477 79.5838 33.7441 84.9032 40.219 84.9032C46.6938 84.9032 51.9609 79.5838 51.9609 73.0484C51.9609 72.7029 51.9391 72.3625 51.9089 72.0238C57.9443 68.5114 62.0254 61.9438 62.0254 54.4193V51.0322H88.8641C90.7143 51.0322 92.219 52.5513 92.219 54.4193V88.2903ZM41.8964 74.7419C44.2314 74.7419 46.4657 74.3168 48.5541 73.5751C48.2773 77.9952 44.6641 81.5161 40.219 81.5161C35.5943 81.5161 31.8319 77.7175 31.8319 73.0484C31.8319 68.3793 35.5943 64.5806 40.219 64.5806C43.8321 64.5806 46.8901 66.9109 48.0676 70.1524C46.1553 70.9196 44.077 71.3548 41.8964 71.3548H38.5415V74.7419H41.8964Z" fill="#E9B531"></path><path d="M75.4448 54.4194H72.0899V57.8065H75.4448V54.4194Z" fill="#E9B531"></path><path d="M82.1544 54.4194H78.7996V57.8065H82.1544V54.4194Z" fill="#E9B531"></path><path d="M88.8641 54.4194H85.5093V57.8065H88.8641V54.4194Z" fill="#E9B531"></path><path d="M74.7503 23.9355H82.4262L107.588 15.4677L82.4262 7H74.7503L83.1374 15.4677L74.7503 23.9355ZM83.3337 10.8748L96.9795 15.4677L83.3337 20.0606L87.8812 15.4677L83.3337 10.8748Z" fill="#E9B531"></path><path d="M68.7351 81.5162H85.5093V64.5807H68.7351V81.5162ZM72.0899 67.9678H82.1544V78.1291H72.0899V67.9678Z" fill="#E9B531"></path></svg>